<?xml version="1.0" encoding="UTF-8" standalone="no"?>
<!DOCTYPE svg PUBLIC "-//W3C//DTD SVG 1.1//EN"
 "http://www.w3.org/Graphics/SVG/1.1/DTD/svg11.dtd">
<!-- Generated by graphviz version 14.0.5 (20251129.0259)
 -->
<!-- Title: NuevoProyectodeJuego.scripts.Maquinas_de_estados.State Pages: 1 -->
<svg width="561pt" height="162pt"
 viewBox="0.00 0.00 561.00 162.00" xmlns="http://www.w3.org/2000/svg" xmlns:xlink="http://www.w3.org/1999/xlink">
<g id="graph0" class="graph" transform="scale(1 1) rotate(0) translate(4 158)">
<title>NuevoProyectodeJuego.scripts.Maquinas_de_estados.State</title>
<!-- Node1 -->
<g id="Node000001" class="node">
<title>Node1</title>
<g id="a_Node000001"><a xlink:title="Clase base para todos los estados de la máquina de movimiento. Contiene los métodos ciclo de vida que...">
<polygon fill="#999999" stroke="#666666" points="553,-154 397.5,-154 397.5,-122 553,-122 553,-154"/>
<text xml:space="preserve" text-anchor="start" x="405.5" y="-140.5" font-family="Helvetica,sans-Serif" font-size="10.00">NuevoProyectodeJuego.scripts.</text>
<text xml:space="preserve" text-anchor="middle" x="475.25" y="-128.5" font-family="Helvetica,sans-Serif" font-size="10.00">Maquinas_de_estados.State</text>
</a>
</g>
</g>
<!-- Node2 -->
<g id="Node000002" class="node">
<title>Node2</title>
<g id="a_Node000002"><a xlink:title=" ">
<polygon fill="white" stroke="#666666" points="39.25,-67 0,-67 0,-47 39.25,-47 39.25,-67"/>
<text xml:space="preserve" text-anchor="middle" x="19.62" y="-53.5" font-family="Helvetica,sans-Serif" font-size="10.00">Node</text>
</a>
</g>
</g>
<!-- Node2&#45;&gt;Node1 -->
<g id="edge1_Node000001_Node000002" class="edge">
<title>Node2&#45;&gt;Node1</title>
<g id="a_edge1_Node000001_Node000002"><a xlink:title=" ">
<path fill="none" stroke="#63b8ff" d="M46.3,-73.15C55.49,-78.43 66.1,-83.97 76.25,-88 203.86,-138.67 242.35,-153.5 379.5,-147 385.28,-146.73 391.25,-146.36 397.24,-145.93"/>
<polygon fill="#63b8ff" stroke="#63b8ff" points="48.31,-70.27 37.92,-68.17 44.73,-76.29 48.31,-70.27"/>
</a>
</g>
</g>
<!-- Node3 -->
<g id="Node000003" class="node">
<title>Node3</title>
<g id="a_Node000003"><a xlink:href="class_nuevo_proyectode_juego_1_1scripts_1_1_maquinas__de__estados_1_1_movimiento_1_1_movement_state_machine.html" target="_top" xlink:title="Máquina de estados para el movimiento del jugador.">
<polygon fill="white" stroke="#666666" points="291.75,-79 76.25,-79 76.25,-35 291.75,-35 291.75,-79"/>
<text xml:space="preserve" text-anchor="start" x="84.25" y="-65.5" font-family="Helvetica,sans-Serif" font-size="10.00">NuevoProyectodeJuego.scripts.</text>
<text xml:space="preserve" text-anchor="start" x="84.25" y="-53.5" font-family="Helvetica,sans-Serif" font-size="10.00">Maquinas_de_estados.Movimiento.Movement</text>
<text xml:space="preserve" text-anchor="middle" x="184" y="-41.5" font-family="Helvetica,sans-Serif" font-size="10.00">StateMachine</text>
</a>
</g>
</g>
<!-- Node2&#45;&gt;Node3 -->
<g id="edge3_Node000003_Node000002" class="edge">
<title>Node2&#45;&gt;Node3</title>
<g id="a_edge3_Node000003_Node000002"><a xlink:title=" ">
<path fill="none" stroke="#63b8ff" d="M50.93,-57C58.5,-57 67.06,-57 76.09,-57"/>
<polygon fill="#63b8ff" stroke="#63b8ff" points="51.08,-53.5 41.08,-57 51.08,-60.5 51.08,-53.5"/>
</a>
</g>
</g>
<!-- Node4 -->
<g id="Node000004" class="node">
<title>Node4</title>
<g id="a_Node000004"><a xlink:href="class_nuevo_proyectode_juego_1_1scripts_1_1_maquinas__de__estados_1_1_state.html" target="_top" xlink:title="Clase base para todos los estados de la máquina de movimiento. Contiene los métodos ciclo de vida que...">
<polygon fill="white" stroke="#666666" points="553,-32 397.5,-32 397.5,0 553,0 553,-32"/>
<text xml:space="preserve" text-anchor="start" x="405.5" y="-18.5" font-family="Helvetica,sans-Serif" font-size="10.00">NuevoProyectodeJuego.scripts.</text>
<text xml:space="preserve" text-anchor="middle" x="475.25" y="-6.5" font-family="Helvetica,sans-Serif" font-size="10.00">Maquinas_de_estados.State</text>
</a>
</g>
</g>
<!-- Node2&#45;&gt;Node4 -->
<g id="edge5_Node000004_Node000002" class="edge">
<title>Node2&#45;&gt;Node4</title>
<g id="a_edge5_Node000004_Node000002"><a xlink:title=" ">
<path fill="none" stroke="#63b8ff" d="M44.45,-40.75C53.94,-35.09 65.21,-29.33 76.25,-26 205.52,12.95 244.6,-2.32 379.5,-8 385.27,-8.24 391.24,-8.57 397.24,-8.95"/>
<polygon fill="#63b8ff" stroke="#63b8ff" points="42.83,-37.63 36.23,-45.92 46.56,-43.55 42.83,-37.63"/>
</a>
</g>
</g>
<!-- Node3&#45;&gt;Node1 -->
<g id="edge2_Node000001_Node000003" class="edge">
<title>Node3&#45;&gt;Node1</title>
<g id="a_edge2_Node000001_Node000003"><a xlink:title=" ">
<path fill="none" stroke="#9a32cd" stroke-dasharray="5,2" d="M276.27,-82.56C321.79,-95.31 375.51,-110.35 415.5,-121.55"/>
<polygon fill="#9a32cd" stroke="#9a32cd" points="277.22,-79.19 266.65,-79.86 275.33,-85.93 277.22,-79.19"/>
</a>
</g>
<text xml:space="preserve" text-anchor="start" x="312.75" y="-130.99" font-family="Helvetica,sans-Serif" font-size="10.00" fill="grey">_stateMachine</text>
<text xml:space="preserve" text-anchor="start" x="312.75" y="-114.99" font-family="Helvetica,sans-Serif" font-size="10.00" fill="grey">stateMachine</text>
</g>
<!-- Node3&#45;&gt;Node4 -->
<g id="edge6_Node000004_Node000003" class="edge">
<title>Node3&#45;&gt;Node4</title>
<g id="a_edge6_Node000004_Node000003"><a xlink:title=" ">
<path fill="none" stroke="#9a32cd" stroke-dasharray="5,2" d="M303.66,-45.21C328.76,-42.26 355.04,-38.83 379.5,-35 385.22,-34.1 391.12,-33.11 397.04,-32.05"/>
<polygon fill="#9a32cd" stroke="#9a32cd" points="303.26,-41.73 293.73,-46.36 304.07,-48.69 303.26,-41.73"/>
</a>
</g>
<text xml:space="preserve" text-anchor="start" x="312.75" y="-65.93" font-family="Helvetica,sans-Serif" font-size="10.00" fill="grey">_stateMachine</text>
<text xml:space="preserve" text-anchor="start" x="312.75" y="-49.93" font-family="Helvetica,sans-Serif" font-size="10.00" fill="grey">stateMachine</text>
</g>
<!-- Node4&#45;&gt;Node3 -->
<g id="edge4_Node000003_Node000004" class="edge">
<title>Node4&#45;&gt;Node3</title>
<g id="a_edge4_Node000003_Node000004"><a xlink:title=" ">
<path fill="none" stroke="#9a32cd" stroke-dasharray="5,2" d="M386.04,-11.61C361.24,-11.71 334.33,-13.08 309.75,-17 287.29,-20.58 263.34,-27.47 242.49,-34.53"/>
<polygon fill="#9a32cd" stroke="#9a32cd" points="385.75,-15.11 395.76,-11.65 385.77,-8.11 385.75,-15.11"/>
</a>
</g>
<text xml:space="preserve" text-anchor="start" x="313.5" y="-22.5" font-family="Helvetica,sans-Serif" font-size="10.00" fill="grey">_current_state</text>
</g>
</g>
</svg>
