<?xml version="1.0" encoding="UTF-8" standalone="no"?>
<!DOCTYPE svg PUBLIC "-//W3C//DTD SVG 1.1//EN"
 "http://www.w3.org/Graphics/SVG/1.1/DTD/svg11.dtd">
<!-- Generated by graphviz version 2.43.0 (0)
 -->
<!-- Title: NuevoProyectodeJuego.scripts.Maquinas_de_estados.State Pages: 1 -->
<svg width="520pt" height="285pt"
 viewBox="0.00 0.00 520.00 285.00" xmlns="http://www.w3.org/2000/svg" xmlns:xlink="http://www.w3.org/1999/xlink">
<g id="graph0" class="graph" transform="scale(1 1) rotate(0) translate(4 281)">
<title>NuevoProyectodeJuego.scripts.Maquinas_de_estados.State</title>
<!-- Node1 -->
<g id="Node000001" class="node">
<title>Node1</title>
<g id="a_Node000001"><a xlink:title="Clase base para todos los estados de la máquina de movimiento. Contiene los métodos ciclo de vida que...">
<polygon fill="#999999" stroke="#666666" points="246,-153.5 78,-153.5 78,-123.5 246,-123.5 246,-153.5"/>
<text text-anchor="start" x="86" y="-141.5" font-family="Helvetica,sans-Serif" font-size="10.00">NuevoProyectodeJuego.scripts.</text>
<text text-anchor="middle" x="162" y="-130.5" font-family="Helvetica,sans-Serif" font-size="10.00">Maquinas_de_estados.State</text>
</a>
</g>
</g>
<!-- Node3 -->
<g id="Node000003" class="node">
<title>Node3</title>
<g id="a_Node000003"><a xlink:href="classNuevoProyectodeJuego_1_1scripts_1_1Maquinas__de__estados_1_1Movimiento_1_1Estados_1_1DoubleJumpMovementState.html" target="_top" xlink:title="Estado de movimiento para el doble salto del jugador.">
<polygon fill="white" stroke="#666666" points="512,-277 282,-277 282,-236 512,-236 512,-277"/>
<text text-anchor="start" x="290" y="-265" font-family="Helvetica,sans-Serif" font-size="10.00">NuevoProyectodeJuego.scripts.</text>
<text text-anchor="start" x="290" y="-254" font-family="Helvetica,sans-Serif" font-size="10.00">Maquinas_de_estados.Movimiento.Estados.</text>
<text text-anchor="middle" x="397" y="-243" font-family="Helvetica,sans-Serif" font-size="10.00">DoubleJumpMovementState</text>
</a>
</g>
</g>
<!-- Node1&#45;&gt;Node3 -->
<g id="edge2_Node000001_Node000003" class="edge">
<title>Node1&#45;&gt;Node3</title>
<g id="a_edge2_Node000001_Node000003"><a xlink:title=" ">
<path fill="none" stroke="#63b8ff" d="M186.43,-160.48C209.19,-180.69 245.56,-210.09 282,-227.5 288.54,-230.62 295.46,-233.44 302.53,-235.97"/>
<polygon fill="#63b8ff" stroke="#63b8ff" points="188.73,-157.85 178.97,-153.75 184.05,-163.05 188.73,-157.85"/>
</a>
</g>
</g>
<!-- Node4 -->
<g id="Node000004" class="node">
<title>Node4</title>
<g id="a_Node000004"><a xlink:href="classNuevoProyectodeJuego_1_1scripts_1_1Maquinas__de__estados_1_1Movimiento_1_1Estados_1_1FallingMovementState.html" target="_top" xlink:title="Estado de movimiento para la caída del jugador.">
<polygon fill="white" stroke="#666666" points="512,-218 282,-218 282,-177 512,-177 512,-218"/>
<text text-anchor="start" x="290" y="-206" font-family="Helvetica,sans-Serif" font-size="10.00">NuevoProyectodeJuego.scripts.</text>
<text text-anchor="start" x="290" y="-195" font-family="Helvetica,sans-Serif" font-size="10.00">Maquinas_de_estados.Movimiento.Estados.</text>
<text text-anchor="middle" x="397" y="-184" font-family="Helvetica,sans-Serif" font-size="10.00">FallingMovementState</text>
</a>
</g>
</g>
<!-- Node1&#45;&gt;Node4 -->
<g id="edge3_Node000001_Node000004" class="edge">
<title>Node1&#45;&gt;Node4</title>
<g id="a_edge3_Node000001_Node000004"><a xlink:title=" ">
<path fill="none" stroke="#63b8ff" d="M232.14,-156.01C258.08,-162.58 287.79,-170.1 314.73,-176.92"/>
<polygon fill="#63b8ff" stroke="#63b8ff" points="232.95,-152.6 222.4,-153.54 231.23,-159.39 232.95,-152.6"/>
</a>
</g>
</g>
<!-- Node5 -->
<g id="Node000005" class="node">
<title>Node5</title>
<g id="a_Node000005"><a xlink:href="classNuevoProyectodeJuego_1_1scripts_1_1Maquinas__de__estados_1_1Movimiento_1_1Estados_1_1IdleMovementState.html" target="_top" xlink:title="Estado de movimiento para el estado Idle del jugador.">
<polygon fill="white" stroke="#666666" points="512,-159 282,-159 282,-118 512,-118 512,-159"/>
<text text-anchor="start" x="290" y="-147" font-family="Helvetica,sans-Serif" font-size="10.00">NuevoProyectodeJuego.scripts.</text>
<text text-anchor="start" x="290" y="-136" font-family="Helvetica,sans-Serif" font-size="10.00">Maquinas_de_estados.Movimiento.Estados.</text>
<text text-anchor="middle" x="397" y="-125" font-family="Helvetica,sans-Serif" font-size="10.00">IdleMovementState</text>
</a>
</g>
</g>
<!-- Node1&#45;&gt;Node5 -->
<g id="edge4_Node000001_Node000005" class="edge">
<title>Node1&#45;&gt;Node5</title>
<g id="a_edge4_Node000001_Node000005"><a xlink:title=" ">
<path fill="none" stroke="#63b8ff" d="M256.33,-138.5C264.76,-138.5 273.37,-138.5 281.96,-138.5"/>
<polygon fill="#63b8ff" stroke="#63b8ff" points="256.13,-135 246.13,-138.5 256.13,-142 256.13,-135"/>
</a>
</g>
</g>
<!-- Node6 -->
<g id="Node000006" class="node">
<title>Node6</title>
<g id="a_Node000006"><a xlink:href="classNuevoProyectodeJuego_1_1scripts_1_1Maquinas__de__estados_1_1Movimiento_1_1Estados_1_1JumpingMovementState.html" target="_top" xlink:title="Estado de movimiento para el salto del jugador.">
<polygon fill="white" stroke="#666666" points="512,-100 282,-100 282,-59 512,-59 512,-100"/>
<text text-anchor="start" x="290" y="-88" font-family="Helvetica,sans-Serif" font-size="10.00">NuevoProyectodeJuego.scripts.</text>
<text text-anchor="start" x="290" y="-77" font-family="Helvetica,sans-Serif" font-size="10.00">Maquinas_de_estados.Movimiento.Estados.</text>
<text text-anchor="middle" x="397" y="-66" font-family="Helvetica,sans-Serif" font-size="10.00">JumpingMovementState</text>
</a>
</g>
</g>
<!-- Node1&#45;&gt;Node6 -->
<g id="edge5_Node000001_Node000006" class="edge">
<title>Node1&#45;&gt;Node6</title>
<g id="a_edge5_Node000001_Node000006"><a xlink:title=" ">
<path fill="none" stroke="#63b8ff" d="M232.14,-120.99C258.08,-114.42 287.79,-106.9 314.73,-100.08"/>
<polygon fill="#63b8ff" stroke="#63b8ff" points="231.23,-117.61 222.4,-123.46 232.95,-124.4 231.23,-117.61"/>
</a>
</g>
</g>
<!-- Node7 -->
<g id="Node000007" class="node">
<title>Node7</title>
<g id="a_Node000007"><a xlink:href="classNuevoProyectodeJuego_1_1scripts_1_1Maquinas__de__estados_1_1Movimiento_1_1Estados_1_1RunningMovementState.html" target="_top" xlink:title="Estado de movimiento para la carrera del jugador.">
<polygon fill="white" stroke="#666666" points="512,-41 282,-41 282,0 512,0 512,-41"/>
<text text-anchor="start" x="290" y="-29" font-family="Helvetica,sans-Serif" font-size="10.00">NuevoProyectodeJuego.scripts.</text>
<text text-anchor="start" x="290" y="-18" font-family="Helvetica,sans-Serif" font-size="10.00">Maquinas_de_estados.Movimiento.Estados.</text>
<text text-anchor="middle" x="397" y="-7" font-family="Helvetica,sans-Serif" font-size="10.00">RunningMovementState</text>
</a>
</g>
</g>
<!-- Node1&#45;&gt;Node7 -->
<g id="edge6_Node000001_Node000007" class="edge">
<title>Node1&#45;&gt;Node7</title>
<g id="a_edge6_Node000001_Node000007"><a xlink:title=" ">
<path fill="none" stroke="#63b8ff" d="M186.43,-116.52C209.19,-96.31 245.56,-66.91 282,-49.5 288.54,-46.38 295.46,-43.56 302.53,-41.03"/>
<polygon fill="#63b8ff" stroke="#63b8ff" points="184.05,-113.95 178.97,-123.25 188.73,-119.15 184.05,-113.95"/>
</a>
</g>
</g>
<!-- Node2 -->
<g id="Node000002" class="node">
<title>Node2</title>
<g id="a_Node000002"><a xlink:title=" ">
<polygon fill="white" stroke="#666666" points="42,-148 0,-148 0,-129 42,-129 42,-148"/>
<text text-anchor="middle" x="21" y="-136" font-family="Helvetica,sans-Serif" font-size="10.00">Node</text>
</a>
</g>
</g>
<!-- Node2&#45;&gt;Node1 -->
<g id="edge1_Node000001_Node000002" class="edge">
<title>Node2&#45;&gt;Node1</title>
<g id="a_edge1_Node000001_Node000002"><a xlink:title=" ">
<path fill="none" stroke="#63b8ff" d="M52.46,-138.5C60.21,-138.5 68.92,-138.5 77.95,-138.5"/>
<polygon fill="#63b8ff" stroke="#63b8ff" points="52.21,-135 42.21,-138.5 52.21,-142 52.21,-135"/>
</a>
</g>
</g>
</g>
</svg>
