<?xml version="1.0" encoding="UTF-8" standalone="no"?>
<!DOCTYPE svg PUBLIC "-//W3C//DTD SVG 1.1//EN"
 "http://www.w3.org/Graphics/SVG/1.1/DTD/svg11.dtd">
<!-- Generated by graphviz version 2.43.0 (0)
 -->
<!-- Title: NuevoProyectodeJuego.scripts.Menu.MainMenu Pages: 1 -->
<svg width="283pt" height="171pt"
 viewBox="0.00 0.00 283.00 171.00" xmlns="http://www.w3.org/2000/svg" xmlns:xlink="http://www.w3.org/1999/xlink">
<g id="graph0" class="graph" transform="scale(1 1) rotate(0) translate(4 167)">
<title>NuevoProyectodeJuego.scripts.Menu.MainMenu</title>
<!-- Node1 -->
<g id="Node000001" class="node">
<title>Node1</title>
<g id="a_Node000001"><a xlink:title="Controla el menú principal del juego (botones de iniciar, opciones y salir). Se mantienen los nombres...">
<polygon fill="#999999" stroke="#666666" points="168,-30 0,-30 0,0 168,0 168,-30"/>
<text text-anchor="start" x="8" y="-18" font-family="Helvetica,sans-Serif" font-size="10.00">NuevoProyectodeJuego.scripts.</text>
<text text-anchor="middle" x="84" y="-7" font-family="Helvetica,sans-Serif" font-size="10.00">Menu.MainMenu</text>
</a>
</g>
</g>
<!-- Node2 -->
<g id="Node000002" class="node">
<title>Node2</title>
<g id="a_Node000002"><a xlink:title=" ">
<polygon fill="white" stroke="#666666" points="89,-101.5 47,-101.5 47,-82.5 89,-82.5 89,-101.5"/>
<text text-anchor="middle" x="68" y="-89.5" font-family="Helvetica,sans-Serif" font-size="10.00">Node</text>
</a>
</g>
</g>
<!-- Node2&#45;&gt;Node1 -->
<g id="edge1_Node000001_Node000002" class="edge">
<title>Node2&#45;&gt;Node1</title>
<g id="a_edge1_Node000001_Node000002"><a xlink:title=" ">
<path fill="none" stroke="#63b8ff" d="M71.93,-72.59C74.72,-59.49 78.43,-42.13 80.99,-30.11"/>
<polygon fill="#63b8ff" stroke="#63b8ff" points="68.5,-71.89 69.84,-82.4 75.34,-73.35 68.5,-71.89"/>
</a>
</g>
</g>
<!-- Node3 -->
<g id="Node000003" class="node">
<title>Node3</title>
<g id="a_Node000003"><a xlink:href="classNuevoProyectodeJuego_1_1scripts_1_1Menu_1_1SubMenus_1_1Settings.html" target="_top" xlink:title="Panel de configuración (resolución, volumen y otras opciones). Añadido namespace y comentarios para D...">
<polygon fill="white" stroke="#666666" points="275,-107 107,-107 107,-77 275,-77 275,-107"/>
<text text-anchor="start" x="115" y="-95" font-family="Helvetica,sans-Serif" font-size="10.00">NuevoProyectodeJuego.scripts.</text>
<text text-anchor="middle" x="191" y="-84" font-family="Helvetica,sans-Serif" font-size="10.00">Menu.SubMenus.Settings</text>
</a>
</g>
</g>
<!-- Node3&#45;&gt;Node1 -->
<g id="edge2_Node000001_Node000003" class="edge">
<title>Node3&#45;&gt;Node1</title>
<g id="a_edge2_Node000001_Node000003"><a xlink:title=" ">
<path fill="none" stroke="#9a32cd" stroke-dasharray="5,2" d="M162.54,-71.05C144.1,-58.13 120.52,-41.6 104.04,-30.04"/>
<polygon fill="#9a32cd" stroke="#9a32cd" points="160.68,-74.02 170.87,-76.89 164.69,-68.29 160.68,-74.02"/>
</a>
</g>
<text text-anchor="middle" x="178" y="-51" font-family="Helvetica,sans-Serif" font-size="10.00" fill="grey"> settingsMenu</text>
</g>
<!-- Node4 -->
<g id="Node000004" class="node">
<title>Node4</title>
<g id="a_Node000004"><a xlink:title=" ">
<polygon fill="white" stroke="#666666" points="217,-163 165,-163 165,-144 217,-144 217,-163"/>
<text text-anchor="middle" x="191" y="-151" font-family="Helvetica,sans-Serif" font-size="10.00">Control</text>
</a>
</g>
</g>
<!-- Node4&#45;&gt;Node3 -->
<g id="edge3_Node000003_Node000004" class="edge">
<title>Node4&#45;&gt;Node3</title>
<g id="a_edge3_Node000003_Node000004"><a xlink:title=" ">
<path fill="none" stroke="#63b8ff" d="M191,-133.73C191,-125.09 191,-115 191,-107.02"/>
<polygon fill="#63b8ff" stroke="#63b8ff" points="187.5,-133.98 191,-143.98 194.5,-133.98 187.5,-133.98"/>
</a>
</g>
</g>
</g>
</svg>
