<?xml version="1.0" encoding="UTF-8" standalone="no"?>
<!DOCTYPE svg PUBLIC "-//W3C//DTD SVG 1.1//EN"
 "http://www.w3.org/Graphics/SVG/1.1/DTD/svg11.dtd">
<!-- Generated by graphviz version 14.0.5 (20251129.0259)
 -->
<!-- Title: NuevoProyectodeJuego.scripts.Maquinas_de_estados.Movimiento.MovementStateMachine Pages: 1 -->
<svg width="458pt" height="211pt"
 viewBox="0.00 0.00 458.00 211.00" xmlns="http://www.w3.org/2000/svg" xmlns:xlink="http://www.w3.org/1999/xlink">
<g id="graph0" class="graph" transform="scale(1 1) rotate(0) translate(4 207)">
<title>NuevoProyectodeJuego.scripts.Maquinas_de_estados.Movimiento.MovementStateMachine</title>
<!-- Node1 -->
<g id="Node000001" class="node">
<title>Node1</title>
<g id="a_Node000001"><a xlink:title="Máquina de estados para el movimiento del jugador.">
<polygon fill="#999999" stroke="#666666" points="215.5,-44 0,-44 0,0 215.5,0 215.5,-44"/>
<text xml:space="preserve" text-anchor="start" x="8" y="-30.5" font-family="Helvetica,sans-Serif" font-size="10.00">NuevoProyectodeJuego.scripts.</text>
<text xml:space="preserve" text-anchor="start" x="8" y="-18.5" font-family="Helvetica,sans-Serif" font-size="10.00">Maquinas_de_estados.Movimiento.Movement</text>
<text xml:space="preserve" text-anchor="middle" x="107.75" y="-6.5" font-family="Helvetica,sans-Serif" font-size="10.00">StateMachine</text>
</a>
</g>
</g>
<!-- Node2 -->
<g id="Node000002" class="node">
<title>Node2</title>
<g id="a_Node000002"><a xlink:title=" ">
<polygon fill="white" stroke="#666666" points="251.38,-203 212.12,-203 212.12,-183 251.38,-183 251.38,-203"/>
<text xml:space="preserve" text-anchor="middle" x="231.75" y="-189.5" font-family="Helvetica,sans-Serif" font-size="10.00">Node</text>
</a>
</g>
</g>
<!-- Node2&#45;&gt;Node1 -->
<g id="edge1_Node000001_Node000002" class="edge">
<title>Node2&#45;&gt;Node1</title>
<g id="a_edge1_Node000001_Node000002"><a xlink:title=" ">
<path fill="none" stroke="#63b8ff" d="M201.06,-181.55C182.78,-174.04 160.21,-162.34 144.75,-146 118.08,-117.82 110.57,-71.12 108.5,-44.1"/>
<polygon fill="#63b8ff" stroke="#63b8ff" points="199.78,-184.81 210.37,-185.15 202.3,-178.28 199.78,-184.81"/>
</a>
</g>
</g>
<!-- Node3 -->
<g id="Node000003" class="node">
<title>Node3</title>
<g id="a_Node000003"><a xlink:href="class_nuevo_proyectode_juego_1_1scripts_1_1_maquinas__de__estados_1_1_state.html" target="_top" xlink:title="Clase base para todos los estados de la máquina de movimiento. Contiene los métodos ciclo de vida que...">
<polygon fill="white" stroke="#666666" points="309.5,-146 154,-146 154,-114 309.5,-114 309.5,-146"/>
<text xml:space="preserve" text-anchor="start" x="162" y="-132.5" font-family="Helvetica,sans-Serif" font-size="10.00">NuevoProyectodeJuego.scripts.</text>
<text xml:space="preserve" text-anchor="middle" x="231.75" y="-120.5" font-family="Helvetica,sans-Serif" font-size="10.00">Maquinas_de_estados.State</text>
</a>
</g>
</g>
<!-- Node2&#45;&gt;Node3 -->
<g id="edge3_Node000003_Node000002" class="edge">
<title>Node2&#45;&gt;Node3</title>
<g id="a_edge3_Node000003_Node000002"><a xlink:title=" ">
<path fill="none" stroke="#63b8ff" d="M231.75,-171.36C231.75,-163.07 231.75,-153.69 231.75,-146.06"/>
<polygon fill="#63b8ff" stroke="#63b8ff" points="228.25,-171.22 231.75,-181.22 235.25,-171.22 228.25,-171.22"/>
</a>
</g>
</g>
<!-- Node4 -->
<g id="Node000004" class="node">
<title>Node4</title>
<g id="a_Node000004"><a xlink:href="class_nuevo_proyectode_juego_1_1scripts_1_1_maquinas__de__estados_1_1_movimiento_1_1_movement_state_machine.html" target="_top" xlink:title="Máquina de estados para el movimiento del jugador.">
<polygon fill="white" stroke="#666666" points="449.5,-44 234,-44 234,0 449.5,0 449.5,-44"/>
<text xml:space="preserve" text-anchor="start" x="242" y="-30.5" font-family="Helvetica,sans-Serif" font-size="10.00">NuevoProyectodeJuego.scripts.</text>
<text xml:space="preserve" text-anchor="start" x="242" y="-18.5" font-family="Helvetica,sans-Serif" font-size="10.00">Maquinas_de_estados.Movimiento.Movement</text>
<text xml:space="preserve" text-anchor="middle" x="341.75" y="-6.5" font-family="Helvetica,sans-Serif" font-size="10.00">StateMachine</text>
</a>
</g>
</g>
<!-- Node2&#45;&gt;Node4 -->
<g id="edge5_Node000004_Node000002" class="edge">
<title>Node2&#45;&gt;Node4</title>
<g id="a_edge5_Node000004_Node000002"><a xlink:title=" ">
<path fill="none" stroke="#63b8ff" d="M262.76,-184.18C301.77,-172.46 366.92,-146.13 393.75,-96 400.88,-82.68 400.51,-75.52 393.75,-62 390.37,-55.24 385.2,-49.34 379.4,-44.33"/>
<polygon fill="#63b8ff" stroke="#63b8ff" points="261.91,-180.78 253.25,-186.89 263.83,-187.52 261.91,-180.78"/>
</a>
</g>
</g>
<!-- Node3&#45;&gt;Node1 -->
<g id="edge2_Node000001_Node000003" class="edge">
<title>Node3&#45;&gt;Node1</title>
<g id="a_edge2_Node000001_Node000003"><a xlink:title=" ">
<path fill="none" stroke="#9a32cd" stroke-dasharray="5,2" d="M168.28,-108.73C161.54,-105.11 155.11,-100.89 149.5,-96 133.53,-82.1 122.26,-60.52 115.49,-44.43"/>
<polygon fill="#9a32cd" stroke="#9a32cd" points="166.43,-111.73 176.95,-112.97 169.5,-105.44 166.43,-111.73"/>
</a>
</g>
<text xml:space="preserve" text-anchor="start" x="152.5" y="-75.5" font-family="Helvetica,sans-Serif" font-size="10.00" fill="grey">_current_state</text>
</g>
<!-- Node3&#45;&gt;Node4 -->
<g id="edge6_Node000004_Node000003" class="edge">
<title>Node3&#45;&gt;Node4</title>
<g id="a_edge6_Node000004_Node000003"><a xlink:title=" ">
<path fill="none" stroke="#9a32cd" stroke-dasharray="5,2" d="M223.24,-102.72C220.6,-89.38 220.24,-73.59 228.5,-62 233.51,-54.97 239.87,-49.2 247.02,-44.46"/>
<polygon fill="#9a32cd" stroke="#9a32cd" points="219.79,-103.33 225.62,-112.18 226.58,-101.63 219.79,-103.33"/>
</a>
</g>
<text xml:space="preserve" text-anchor="start" x="231.5" y="-75.5" font-family="Helvetica,sans-Serif" font-size="10.00" fill="grey">_current_state</text>
</g>
<!-- Node4&#45;&gt;Node3 -->
<g id="edge4_Node000003_Node000004" class="edge">
<title>Node4&#45;&gt;Node3</title>
<g id="a_edge4_Node000003_Node000004"><a xlink:title=" ">
<path fill="none" stroke="#9a32cd" stroke-dasharray="5,2" d="M326.58,-54.27C317.98,-71.05 307.6,-89.58 300.75,-96 293.19,-103.08 283.83,-108.91 274.47,-113.59"/>
<polygon fill="#9a32cd" stroke="#9a32cd" points="329.61,-56.03 330.98,-45.52 323.36,-52.88 329.61,-56.03"/>
</a>
</g>
<text xml:space="preserve" text-anchor="start" x="325.13" y="-83.5" font-family="Helvetica,sans-Serif" font-size="10.00" fill="grey">_stateMachine</text>
<text xml:space="preserve" text-anchor="start" x="325.13" y="-67.5" font-family="Helvetica,sans-Serif" font-size="10.00" fill="grey">stateMachine</text>
</g>
</g>
</svg>
