<?xml version="1.0" encoding="UTF-8" standalone="no"?>
<!DOCTYPE svg PUBLIC "-//W3C//DTD SVG 1.1//EN"
 "http://www.w3.org/Graphics/SVG/1.1/DTD/svg11.dtd">
<!-- Generated by graphviz version 2.43.0 (0)
 -->
<!-- Title: NuevoProyectodeJuego.scripts.Player.Camera2d Pages: 1 -->
<svg width="270pt" height="171pt"
 viewBox="0.00 0.00 270.00 171.00" xmlns="http://www.w3.org/2000/svg" xmlns:xlink="http://www.w3.org/1999/xlink">
<g id="graph0" class="graph" transform="scale(1 1) rotate(0) translate(4 167)">
<title>NuevoProyectodeJuego.scripts.Player.Camera2d</title>
<!-- Node1 -->
<g id="Node000001" class="node">
<title>Node1</title>
<g id="a_Node000001"><a xlink:title="Clase que representa la cámara 2D del jugador.">
<polygon fill="#999999" stroke="#666666" points="168,-30 0,-30 0,0 168,0 168,-30"/>
<text text-anchor="start" x="8" y="-18" font-family="Helvetica,sans-Serif" font-size="10.00">NuevoProyectodeJuego.scripts.</text>
<text text-anchor="middle" x="84" y="-7" font-family="Helvetica,sans-Serif" font-size="10.00">Player.Camera2d</text>
</a>
</g>
</g>
<!-- Node2 -->
<g id="Node000002" class="node">
<title>Node2</title>
<g id="a_Node000002"><a xlink:title=" ">
<polygon fill="white" stroke="#666666" points="76,-101.5 8,-101.5 8,-82.5 76,-82.5 76,-101.5"/>
<text text-anchor="middle" x="42" y="-89.5" font-family="Helvetica,sans-Serif" font-size="10.00">Camera2D</text>
</a>
</g>
</g>
<!-- Node2&#45;&gt;Node1 -->
<g id="edge1_Node000001_Node000002" class="edge">
<title>Node2&#45;&gt;Node1</title>
<g id="a_edge1_Node000001_Node000002"><a xlink:title=" ">
<path fill="none" stroke="#63b8ff" d="M51.87,-73.38C59.26,-60.18 69.23,-42.37 76.1,-30.11"/>
<polygon fill="#63b8ff" stroke="#63b8ff" points="48.65,-71.96 46.82,-82.4 54.76,-75.38 48.65,-71.96"/>
</a>
</g>
</g>
<!-- Node3 -->
<g id="Node000003" class="node">
<title>Node3</title>
<g id="a_Node000003"><a xlink:href="classNuevoProyectodeJuego_1_1scripts_1_1Player_1_1Player.html" target="_top" xlink:title="Clase que representa al jugador.">
<polygon fill="white" stroke="#666666" points="262,-107 94,-107 94,-77 262,-77 262,-107"/>
<text text-anchor="start" x="102" y="-95" font-family="Helvetica,sans-Serif" font-size="10.00">NuevoProyectodeJuego.scripts.</text>
<text text-anchor="middle" x="178" y="-84" font-family="Helvetica,sans-Serif" font-size="10.00">Player.Player</text>
</a>
</g>
</g>
<!-- Node3&#45;&gt;Node1 -->
<g id="edge2_Node000001_Node000003" class="edge">
<title>Node3&#45;&gt;Node1</title>
<g id="a_edge2_Node000001_Node000003"><a xlink:title=" ">
<path fill="none" stroke="#9a32cd" stroke-dasharray="5,2" d="M152.34,-70.53C136.24,-57.68 115.89,-41.44 101.6,-30.04"/>
<polygon fill="#9a32cd" stroke="#9a32cd" points="150.32,-73.39 160.32,-76.89 154.69,-67.92 150.32,-73.39"/>
</a>
</g>
<text text-anchor="middle" x="153" y="-51" font-family="Helvetica,sans-Serif" font-size="10.00" fill="grey"> player</text>
</g>
<!-- Node4 -->
<g id="Node000004" class="node">
<title>Node4</title>
<g id="a_Node000004"><a xlink:title=" ">
<polygon fill="white" stroke="#666666" points="229,-163 127,-163 127,-144 229,-144 229,-163"/>
<text text-anchor="middle" x="178" y="-151" font-family="Helvetica,sans-Serif" font-size="10.00">CharacterBody2D</text>
</a>
</g>
</g>
<!-- Node4&#45;&gt;Node3 -->
<g id="edge3_Node000003_Node000004" class="edge">
<title>Node4&#45;&gt;Node3</title>
<g id="a_edge3_Node000003_Node000004"><a xlink:title=" ">
<path fill="none" stroke="#63b8ff" d="M178,-133.73C178,-125.09 178,-115 178,-107.02"/>
<polygon fill="#63b8ff" stroke="#63b8ff" points="174.5,-133.98 178,-143.98 181.5,-133.98 174.5,-133.98"/>
</a>
</g>
</g>
</g>
</svg>
