<?xml version="1.0" encoding="UTF-8" standalone="no"?>
<!DOCTYPE svg PUBLIC "-//W3C//DTD SVG 1.1//EN"
 "http://www.w3.org/Graphics/SVG/1.1/DTD/svg11.dtd">
<!-- Generated by graphviz version 2.43.0 (0)
 -->
<!-- Title: NuevoProyectodeJuego.scripts.Enemigos.Pato.SetAnimation Pages: 1 -->
<svg width="601pt" height="121pt"
 viewBox="0.00 0.00 601.00 120.50" xmlns="http://www.w3.org/2000/svg" xmlns:xlink="http://www.w3.org/1999/xlink">
<g id="graph0" class="graph" transform="scale(1 1) rotate(0) translate(4 116.5)">
<title>NuevoProyectodeJuego.scripts.Enemigos.Pato.SetAnimation</title>
<!-- Node1 -->
<g id="Node000001" class="node">
<title>Node1</title>
<g id="a_Node000001"><a xlink:title="Establece la animación del pato.">
<polygon fill="#999999" stroke="#666666" points="593,-88.5 425,-88.5 425,-58.5 593,-58.5 593,-88.5"/>
<text text-anchor="start" x="433" y="-76.5" font-family="Helvetica,sans-Serif" font-size="10.00">NuevoProyectodeJuego.scripts.</text>
<text text-anchor="middle" x="509" y="-65.5" font-family="Helvetica,sans-Serif" font-size="10.00">Enemigos.Pato.SetAnimation</text>
</a>
</g>
</g>
<!-- Node2 -->
<g id="Node000002" class="node">
<title>Node2</title>
<g id="a_Node000002"><a xlink:href="classNuevoProyectodeJuego_1_1scripts_1_1Enemigos_1_1Pato.html#af93c80b4fa0a112056d2a79d91bbd7eb" target="_top" xlink:title="Procesa la lógica del pato en cada frame. Detecta cuando el jugador salta (cambio en velocidad Y) y h...">
<polygon fill="white" stroke="#666666" points="380.5,-112.5 212.5,-112.5 212.5,-82.5 380.5,-82.5 380.5,-112.5"/>
<text text-anchor="start" x="220.5" y="-100.5" font-family="Helvetica,sans-Serif" font-size="10.00">NuevoProyectodeJuego.scripts.</text>
<text text-anchor="middle" x="296.5" y="-89.5" font-family="Helvetica,sans-Serif" font-size="10.00">Enemigos.Pato._Process</text>
</a>
</g>
</g>
<!-- Node1&#45;&gt;Node2 -->
<g id="edge1_Node000001_Node000002" class="edge">
<title>Node1&#45;&gt;Node2</title>
<g id="a_edge1_Node000001_Node000002"><a xlink:title=" ">
<path fill="none" stroke="#63b8ff" d="M414.54,-84.16C403.3,-85.44 391.87,-86.74 380.78,-88"/>
<polygon fill="#63b8ff" stroke="#63b8ff" points="415.27,-87.6 424.8,-82.99 414.47,-80.64 415.27,-87.6"/>
</a>
</g>
</g>
<!-- Node3 -->
<g id="Node000003" class="node">
<title>Node3</title>
<g id="a_Node000003"><a xlink:href="classNuevoProyectodeJuego_1_1scripts_1_1Enemigos_1_1Pato.html#aad145dc8332ef8aedc7e568ecefafcfa" target="_top" xlink:title="Manejador llamado cuando el jugador emite la señal de salto. Hace que el pato salte si está dentro de...">
<polygon fill="white" stroke="#666666" points="389,-64.5 204,-64.5 204,-34.5 389,-34.5 389,-64.5"/>
<text text-anchor="start" x="212" y="-52.5" font-family="Helvetica,sans-Serif" font-size="10.00">NuevoProyectodeJuego.scripts.</text>
<text text-anchor="middle" x="296.5" y="-41.5" font-family="Helvetica,sans-Serif" font-size="10.00">Enemigos.Pato.OnPlayerInJumping</text>
</a>
</g>
</g>
<!-- Node1&#45;&gt;Node3 -->
<g id="edge2_Node000001_Node000003" class="edge">
<title>Node1&#45;&gt;Node3</title>
<g id="a_edge2_Node000001_Node000003"><a xlink:title=" ">
<path fill="none" stroke="#63b8ff" d="M414.84,-62.88C406.29,-61.9 397.64,-60.92 389.11,-59.94"/>
<polygon fill="#63b8ff" stroke="#63b8ff" points="414.47,-66.36 424.8,-64.01 415.27,-59.4 414.47,-66.36"/>
</a>
</g>
</g>
<!-- Node4 -->
<g id="Node000004" class="node">
<title>Node4</title>
<g id="a_Node000004"><a xlink:href="classNuevoProyectodeJuego_1_1scripts_1_1Enemigos_1_1Pato.html#a1ea55e0a029882013cf029d7e9825e6c" target="_top" xlink:title="Se ejecuta cuando un cuerpo entra en el área de trigger del pato. Activa la detección del jugador par...">
<polygon fill="white" stroke="#666666" points="168,-100 0,-100 0,-59 168,-59 168,-100"/>
<text text-anchor="start" x="8" y="-88" font-family="Helvetica,sans-Serif" font-size="10.00">NuevoProyectodeJuego.scripts.</text>
<text text-anchor="start" x="8" y="-77" font-family="Helvetica,sans-Serif" font-size="10.00">Enemigos.Pato._on_trigger</text>
<text text-anchor="middle" x="84" y="-66" font-family="Helvetica,sans-Serif" font-size="10.00">_area_2d_body_entered</text>
</a>
</g>
</g>
<!-- Node3&#45;&gt;Node4 -->
<g id="edge3_Node000003_Node000004" class="edge">
<title>Node3&#45;&gt;Node4</title>
<g id="a_edge3_Node000003_Node000004"><a xlink:title=" ">
<path fill="none" stroke="#63b8ff" d="M193.74,-64C185.16,-65.23 176.55,-66.45 168.14,-67.65"/>
<polygon fill="#63b8ff" stroke="#63b8ff" points="194.38,-67.45 203.78,-62.57 193.39,-60.52 194.38,-67.45"/>
</a>
</g>
</g>
<!-- Node5 -->
<g id="Node000005" class="node">
<title>Node5</title>
<g id="a_Node000005"><a xlink:href="classNuevoProyectodeJuego_1_1scripts_1_1Enemigos_1_1Pato.html#aa6994e22b011fe12379dbd902d39ecc9" target="_top" xlink:title="Se ejecuta cuando un cuerpo sale del área de trigger del pato. Desactiva la detección del jugador.">
<polygon fill="white" stroke="#666666" points="168,-41 0,-41 0,0 168,0 168,-41"/>
<text text-anchor="start" x="8" y="-29" font-family="Helvetica,sans-Serif" font-size="10.00">NuevoProyectodeJuego.scripts.</text>
<text text-anchor="start" x="8" y="-18" font-family="Helvetica,sans-Serif" font-size="10.00">Enemigos.Pato._on_trigger</text>
<text text-anchor="middle" x="84" y="-7" font-family="Helvetica,sans-Serif" font-size="10.00">_area_2d_body_exited</text>
</a>
</g>
</g>
<!-- Node3&#45;&gt;Node5 -->
<g id="edge4_Node000003_Node000005" class="edge">
<title>Node3&#45;&gt;Node5</title>
<g id="a_edge4_Node000003_Node000005"><a xlink:title=" ">
<path fill="none" stroke="#63b8ff" d="M193.74,-35.48C185.16,-34.3 176.55,-33.11 168.14,-31.95"/>
<polygon fill="#63b8ff" stroke="#63b8ff" points="193.4,-38.97 203.78,-36.86 194.36,-32.03 193.4,-38.97"/>
</a>
</g>
</g>
</g>
</svg>
