<?xml version="1.0" encoding="UTF-8" standalone="no"?>
<!DOCTYPE svg PUBLIC "-//W3C//DTD SVG 1.1//EN"
 "http://www.w3.org/Graphics/SVG/1.1/DTD/svg11.dtd">
<!-- Generated by graphviz version 2.43.0 (0)
 -->
<!-- Title: NuevoProyectodeJuego.scripts.Maquinas_de_estados.Movimiento.Estados.DoubleJumpMovementState Pages: 1 -->
<svg width="875pt" height="144pt"
 viewBox="0.00 0.00 875.00 143.86" xmlns="http://www.w3.org/2000/svg" xmlns:xlink="http://www.w3.org/1999/xlink">
<g id="graph0" class="graph" transform="scale(1 1) rotate(0) translate(4 139.86)">
<title>NuevoProyectodeJuego.scripts.Maquinas_de_estados.Movimiento.Estados.DoubleJumpMovementState</title>
<!-- Node1 -->
<g id="Node000001" class="node">
<title>Node1</title>
<g id="a_Node000001"><a xlink:title="Estado de movimiento para el doble salto del jugador.">
<polygon fill="#999999" stroke="#666666" points="867,-135.86 637,-135.86 637,-94.86 867,-94.86 867,-135.86"/>
<text text-anchor="start" x="645" y="-123.86" font-family="Helvetica,sans-Serif" font-size="10.00">NuevoProyectodeJuego.scripts.</text>
<text text-anchor="start" x="645" y="-112.86" font-family="Helvetica,sans-Serif" font-size="10.00">Maquinas_de_estados.Movimiento.Estados.</text>
<text text-anchor="middle" x="752" y="-101.86" font-family="Helvetica,sans-Serif" font-size="10.00">DoubleJumpMovementState</text>
</a>
</g>
</g>
<!-- Node2 -->
<g id="Node000002" class="node">
<title>Node2</title>
<g id="a_Node000002"><a xlink:href="classNuevoProyectodeJuego_1_1scripts_1_1Maquinas__de__estados_1_1State.html" target="_top" xlink:title="Clase base para todos los estados de la máquina de movimiento. Contiene los métodos ciclo de vida que...">
<polygon fill="white" stroke="#666666" points="537,-124.86 495,-124.86 495,-105.86 537,-105.86 537,-124.86"/>
<text text-anchor="middle" x="516" y="-112.86" font-family="Helvetica,sans-Serif" font-size="10.00">State</text>
</a>
</g>
</g>
<!-- Node2&#45;&gt;Node1 -->
<g id="edge1_Node000001_Node000002" class="edge">
<title>Node2&#45;&gt;Node1</title>
<g id="a_edge1_Node000001_Node000002"><a xlink:title=" ">
<path fill="none" stroke="#63b8ff" d="M547.53,-115.36C570.66,-115.36 603.98,-115.36 636.98,-115.36"/>
<polygon fill="#63b8ff" stroke="#63b8ff" points="547.36,-111.86 537.36,-115.36 547.36,-118.86 547.36,-111.86"/>
</a>
</g>
</g>
<!-- Node3 -->
<g id="Node000003" class="node">
<title>Node3</title>
<g id="a_Node000003"><a xlink:title=" ">
<polygon fill="white" stroke="#666666" points="42,-61.86 0,-61.86 0,-42.86 42,-42.86 42,-61.86"/>
<text text-anchor="middle" x="21" y="-49.86" font-family="Helvetica,sans-Serif" font-size="10.00">Node</text>
</a>
</g>
</g>
<!-- Node3&#45;&gt;Node2 -->
<g id="edge2_Node000002_Node000003" class="edge">
<title>Node3&#45;&gt;Node2</title>
<g id="a_edge2_Node000002_Node000003"><a xlink:title=" ">
<path fill="none" stroke="#63b8ff" d="M45.72,-67.16C55.66,-72.74 67.56,-78.63 79,-82.36 221.48,-128.76 264.2,-124.07 414,-120.36 442.08,-119.67 474.51,-117.89 494.89,-116.65"/>
<polygon fill="#63b8ff" stroke="#63b8ff" points="47.26,-64.01 36.86,-61.98 43.73,-70.05 47.26,-64.01"/>
</a>
</g>
</g>
<!-- Node4 -->
<g id="Node000004" class="node">
<title>Node4</title>
<g id="a_Node000004"><a xlink:href="classNuevoProyectodeJuego_1_1scripts_1_1Maquinas__de__estados_1_1Movimiento_1_1MovementStateMachine.html" target="_top" xlink:title="Máquina de estados para el movimiento del jugador.">
<polygon fill="white" stroke="#666666" points="321,-72.86 79,-72.86 79,-31.86 321,-31.86 321,-72.86"/>
<text text-anchor="start" x="87" y="-60.86" font-family="Helvetica,sans-Serif" font-size="10.00">NuevoProyectodeJuego.scripts.</text>
<text text-anchor="start" x="87" y="-49.86" font-family="Helvetica,sans-Serif" font-size="10.00">Maquinas_de_estados.Movimiento.Movement</text>
<text text-anchor="middle" x="200" y="-38.86" font-family="Helvetica,sans-Serif" font-size="10.00">StateMachine</text>
</a>
</g>
</g>
<!-- Node3&#45;&gt;Node4 -->
<g id="edge4_Node000004_Node000003" class="edge">
<title>Node3&#45;&gt;Node4</title>
<g id="a_edge4_Node000004_Node000003"><a xlink:title=" ">
<path fill="none" stroke="#63b8ff" d="M52.38,-52.36C60.31,-52.36 69.36,-52.36 78.98,-52.36"/>
<polygon fill="#63b8ff" stroke="#63b8ff" points="52.3,-48.86 42.3,-52.36 52.3,-55.86 52.3,-48.86"/>
</a>
</g>
</g>
<!-- Node5 -->
<g id="Node000005" class="node">
<title>Node5</title>
<g id="a_Node000005"><a xlink:href="classNuevoProyectodeJuego_1_1scripts_1_1Maquinas__de__estados_1_1State.html" target="_top" xlink:title="Clase base para todos los estados de la máquina de movimiento. Contiene los métodos ciclo de vida que...">
<polygon fill="white" stroke="#666666" points="600,-33.36 432,-33.36 432,-3.36 600,-3.36 600,-33.36"/>
<text text-anchor="start" x="440" y="-21.36" font-family="Helvetica,sans-Serif" font-size="10.00">NuevoProyectodeJuego.scripts.</text>
<text text-anchor="middle" x="516" y="-10.36" font-family="Helvetica,sans-Serif" font-size="10.00">Maquinas_de_estados.State</text>
</a>
</g>
</g>
<!-- Node3&#45;&gt;Node5 -->
<g id="edge6_Node000005_Node000003" class="edge">
<title>Node3&#45;&gt;Node5</title>
<g id="a_edge6_Node000005_Node000003"><a xlink:title=" ">
<path fill="none" stroke="#63b8ff" d="M44.4,-37.62C54.53,-31.75 66.93,-25.61 79,-22.36 222.83,16.42 265.12,-6.21 414,-11.36 419.8,-11.56 425.78,-11.83 431.8,-12.14"/>
<polygon fill="#63b8ff" stroke="#63b8ff" points="42.52,-34.67 35.8,-42.86 46.16,-40.65 42.52,-34.67"/>
</a>
</g>
</g>
<!-- Node4&#45;&gt;Node2 -->
<g id="edge3_Node000002_Node000004" class="edge">
<title>Node4&#45;&gt;Node2</title>
<g id="a_edge3_Node000002_Node000004"><a xlink:title=" ">
<path fill="none" stroke="#9a32cd" stroke-dasharray="5,2" d="M313.55,-74.94C380.26,-88.33 458.64,-104.05 494.82,-111.31"/>
<polygon fill="#9a32cd" stroke="#9a32cd" points="313.87,-71.44 303.38,-72.9 312.5,-78.3 313.87,-71.44"/>
</a>
</g>
<text text-anchor="middle" x="376.5" y="-108.36" font-family="Helvetica,sans-Serif" font-size="10.00" fill="grey"> _stateMachine</text>
<text text-anchor="middle" x="376.5" y="-97.36" font-family="Helvetica,sans-Serif" font-size="10.00" fill="grey">stateMachine</text>
</g>
<!-- Node4&#45;&gt;Node5 -->
<g id="edge7_Node000005_Node000004" class="edge">
<title>Node4&#45;&gt;Node5</title>
<g id="a_edge7_Node000005_Node000004"><a xlink:title=" ">
<path fill="none" stroke="#9a32cd" stroke-dasharray="5,2" d="M331.04,-39.25C358.45,-36.4 387.18,-33.34 414,-30.36 419.79,-29.72 425.77,-29.04 431.79,-28.35"/>
<polygon fill="#9a32cd" stroke="#9a32cd" points="330.59,-35.78 321.01,-40.29 331.31,-42.74 330.59,-35.78"/>
</a>
</g>
<text text-anchor="middle" x="376.5" y="-52.36" font-family="Helvetica,sans-Serif" font-size="10.00" fill="grey"> _stateMachine</text>
<text text-anchor="middle" x="376.5" y="-41.36" font-family="Helvetica,sans-Serif" font-size="10.00" fill="grey">stateMachine</text>
</g>
<!-- Node5&#45;&gt;Node4 -->
<g id="edge5_Node000004_Node000005" class="edge">
<title>Node5&#45;&gt;Node4</title>
<g id="a_edge5_Node000004_Node000005"><a xlink:title=" ">
<path fill="none" stroke="#9a32cd" stroke-dasharray="5,2" d="M421.79,-14.92C394.99,-15 365.76,-16.13 339,-19.36 317.36,-21.97 294.18,-26.72 273.13,-31.82"/>
<polygon fill="#9a32cd" stroke="#9a32cd" points="421.93,-18.42 431.94,-14.94 421.94,-11.42 421.93,-18.42"/>
</a>
</g>
<text text-anchor="middle" x="376.5" y="-22.36" font-family="Helvetica,sans-Serif" font-size="10.00" fill="grey"> _current_state</text>
</g>
</g>
</svg>
