<?xml version="1.0" encoding="UTF-8" standalone="no"?>
<!DOCTYPE svg PUBLIC "-//W3C//DTD SVG 1.1//EN"
 "http://www.w3.org/Graphics/SVG/1.1/DTD/svg11.dtd">
<!-- Generated by graphviz version 2.43.0 (0)
 -->
<!-- Title: NuevoProyectodeJuego.scripts.Maquinas_de_estados.Movimiento.Estados.IdleMovementState Pages: 1 -->
<svg width="238pt" height="159pt"
 viewBox="0.00 0.00 238.00 159.00" xmlns="http://www.w3.org/2000/svg" xmlns:xlink="http://www.w3.org/1999/xlink">
<g id="graph0" class="graph" transform="scale(1 1) rotate(0) translate(4 155)">
<title>NuevoProyectodeJuego.scripts.Maquinas_de_estados.Movimiento.Estados.IdleMovementState</title>
<!-- Node1 -->
<g id="Node000001" class="node">
<title>Node1</title>
<g id="a_Node000001"><a xlink:title="Estado de movimiento para el estado Idle del jugador.">
<polygon fill="#999999" stroke="#666666" points="230,-41 0,-41 0,0 230,0 230,-41"/>
<text text-anchor="start" x="8" y="-29" font-family="Helvetica,sans-Serif" font-size="10.00">NuevoProyectodeJuego.scripts.</text>
<text text-anchor="start" x="8" y="-18" font-family="Helvetica,sans-Serif" font-size="10.00">Maquinas_de_estados.Movimiento.Estados.</text>
<text text-anchor="middle" x="115" y="-7" font-family="Helvetica,sans-Serif" font-size="10.00">IdleMovementState</text>
</a>
</g>
</g>
<!-- Node2 -->
<g id="Node000002" class="node">
<title>Node2</title>
<g id="a_Node000002"><a xlink:href="classNuevoProyectodeJuego_1_1scripts_1_1Maquinas__de__estados_1_1State.html" target="_top" xlink:title="Clase base para todos los estados de la máquina de movimiento. Contiene los métodos ciclo de vida que...">
<polygon fill="white" stroke="#666666" points="136,-96 94,-96 94,-77 136,-77 136,-96"/>
<text text-anchor="middle" x="115" y="-84" font-family="Helvetica,sans-Serif" font-size="10.00">State</text>
</a>
</g>
</g>
<!-- Node2&#45;&gt;Node1 -->
<g id="edge1_Node000001_Node000002" class="edge">
<title>Node2&#45;&gt;Node1</title>
<g id="a_edge1_Node000001_Node000002"><a xlink:title=" ">
<path fill="none" stroke="#63b8ff" d="M115,-66.63C115,-58.56 115,-49.15 115,-41.01"/>
<polygon fill="#63b8ff" stroke="#63b8ff" points="111.5,-66.87 115,-76.87 118.5,-66.87 111.5,-66.87"/>
</a>
</g>
</g>
<!-- Node3 -->
<g id="Node000003" class="node">
<title>Node3</title>
<g id="a_Node000003"><a xlink:title=" ">
<polygon fill="white" stroke="#666666" points="136,-151 94,-151 94,-132 136,-132 136,-151"/>
<text text-anchor="middle" x="115" y="-139" font-family="Helvetica,sans-Serif" font-size="10.00">Node</text>
</a>
</g>
</g>
<!-- Node3&#45;&gt;Node2 -->
<g id="edge2_Node000002_Node000003" class="edge">
<title>Node3&#45;&gt;Node2</title>
<g id="a_edge2_Node000002_Node000003"><a xlink:title=" ">
<path fill="none" stroke="#63b8ff" d="M115,-121.66C115,-112.93 115,-102.99 115,-96.09"/>
<polygon fill="#63b8ff" stroke="#63b8ff" points="111.5,-121.75 115,-131.75 118.5,-121.75 111.5,-121.75"/>
</a>
</g>
</g>
</g>
</svg>
