<?xml version="1.0" encoding="UTF-8" standalone="no"?>
<!DOCTYPE svg PUBLIC "-//W3C//DTD SVG 1.1//EN"
 "http://www.w3.org/Graphics/SVG/1.1/DTD/svg11.dtd">
<!-- Generated by graphviz version 2.43.0 (0)
 -->
<!-- Title: NuevoProyectodeJuego.scripts.Maquinas_de_estados.Movimiento.MovementStateMachine Pages: 1 -->
<svg width="510pt" height="193pt"
 viewBox="0.00 0.00 510.00 193.00" xmlns="http://www.w3.org/2000/svg" xmlns:xlink="http://www.w3.org/1999/xlink">
<g id="graph0" class="graph" transform="scale(1 1) rotate(0) translate(4 189)">
<title>NuevoProyectodeJuego.scripts.Maquinas_de_estados.Movimiento.MovementStateMachine</title>
<!-- Node1 -->
<g id="Node000001" class="node">
<title>Node1</title>
<g id="a_Node000001"><a xlink:title="Máquina de estados para el movimiento del jugador.">
<polygon fill="#999999" stroke="#666666" points="242,-41 0,-41 0,0 242,0 242,-41"/>
<text text-anchor="start" x="8" y="-29" font-family="Helvetica,sans-Serif" font-size="10.00">NuevoProyectodeJuego.scripts.</text>
<text text-anchor="start" x="8" y="-18" font-family="Helvetica,sans-Serif" font-size="10.00">Maquinas_de_estados.Movimiento.Movement</text>
<text text-anchor="middle" x="121" y="-7" font-family="Helvetica,sans-Serif" font-size="10.00">StateMachine</text>
</a>
</g>
</g>
<!-- Node2 -->
<g id="Node000002" class="node">
<title>Node2</title>
<g id="a_Node000002"><a xlink:title=" ">
<polygon fill="white" stroke="#666666" points="271,-185 229,-185 229,-166 271,-166 271,-185"/>
<text text-anchor="middle" x="250" y="-173" font-family="Helvetica,sans-Serif" font-size="10.00">Node</text>
</a>
</g>
</g>
<!-- Node2&#45;&gt;Node1 -->
<g id="edge1_Node000001_Node000002" class="edge">
<title>Node2&#45;&gt;Node1</title>
<g id="a_edge1_Node000001_Node000002"><a xlink:title=" ">
<path fill="none" stroke="#63b8ff" d="M219.11,-165.42C199.25,-158.25 174.07,-146.5 157,-129 133.5,-104.9 125.33,-65.03 122.5,-41.21"/>
<polygon fill="#63b8ff" stroke="#63b8ff" points="218.06,-168.76 228.66,-168.67 220.32,-162.13 218.06,-168.76"/>
</a>
</g>
</g>
<!-- Node3 -->
<g id="Node000003" class="node">
<title>Node3</title>
<g id="a_Node000003"><a xlink:href="classNuevoProyectodeJuego_1_1scripts_1_1Maquinas__de__estados_1_1State.html" target="_top" xlink:title="Clase base para todos los estados de la máquina de movimiento. Contiene los métodos ciclo de vida que...">
<polygon fill="white" stroke="#666666" points="334,-129 166,-129 166,-99 334,-99 334,-129"/>
<text text-anchor="start" x="174" y="-117" font-family="Helvetica,sans-Serif" font-size="10.00">NuevoProyectodeJuego.scripts.</text>
<text text-anchor="middle" x="250" y="-106" font-family="Helvetica,sans-Serif" font-size="10.00">Maquinas_de_estados.State</text>
</a>
</g>
</g>
<!-- Node2&#45;&gt;Node3 -->
<g id="edge3_Node000003_Node000002" class="edge">
<title>Node2&#45;&gt;Node3</title>
<g id="a_edge3_Node000003_Node000002"><a xlink:title=" ">
<path fill="none" stroke="#63b8ff" d="M250,-155.73C250,-147.09 250,-137 250,-129.02"/>
<polygon fill="#63b8ff" stroke="#63b8ff" points="246.5,-155.98 250,-165.98 253.5,-155.98 246.5,-155.98"/>
</a>
</g>
</g>
<!-- Node4 -->
<g id="Node000004" class="node">
<title>Node4</title>
<g id="a_Node000004"><a xlink:href="classNuevoProyectodeJuego_1_1scripts_1_1Maquinas__de__estados_1_1Movimiento_1_1MovementStateMachine.html" target="_top" xlink:title="Máquina de estados para el movimiento del jugador.">
<polygon fill="white" stroke="#666666" points="502,-41 260,-41 260,0 502,0 502,-41"/>
<text text-anchor="start" x="268" y="-29" font-family="Helvetica,sans-Serif" font-size="10.00">NuevoProyectodeJuego.scripts.</text>
<text text-anchor="start" x="268" y="-18" font-family="Helvetica,sans-Serif" font-size="10.00">Maquinas_de_estados.Movimiento.Movement</text>
<text text-anchor="middle" x="381" y="-7" font-family="Helvetica,sans-Serif" font-size="10.00">StateMachine</text>
</a>
</g>
</g>
<!-- Node2&#45;&gt;Node4 -->
<g id="edge5_Node000004_Node000002" class="edge">
<title>Node2&#45;&gt;Node4</title>
<g id="a_edge5_Node000004_Node000002"><a xlink:title=" ">
<path fill="none" stroke="#63b8ff" d="M280.92,-168.18C321.94,-157.93 392.58,-133.3 422,-81 426.79,-72.48 425.94,-67.95 422,-59 419.04,-52.29 414.23,-46.26 408.92,-41.1"/>
<polygon fill="#63b8ff" stroke="#63b8ff" points="280.1,-164.78 271.18,-170.49 281.71,-171.59 280.1,-164.78"/>
</a>
</g>
</g>
<!-- Node3&#45;&gt;Node1 -->
<g id="edge2_Node000001_Node000003" class="edge">
<title>Node3&#45;&gt;Node1</title>
<g id="a_edge2_Node000001_Node000003"><a xlink:title=" ">
<path fill="none" stroke="#9a32cd" stroke-dasharray="5,2" d="M177.58,-94.95C169.48,-91.14 161.74,-86.54 155,-81 142.32,-70.57 133.43,-54.1 127.93,-41.12"/>
<polygon fill="#9a32cd" stroke="#9a32cd" points="176.26,-98.2 186.83,-98.93 179.03,-91.77 176.26,-98.2"/>
</a>
</g>
<text text-anchor="middle" x="191.5" y="-67.5" font-family="Helvetica,sans-Serif" font-size="10.00" fill="grey"> _current_state</text>
</g>
<!-- Node3&#45;&gt;Node4 -->
<g id="edge6_Node000004_Node000003" class="edge">
<title>Node3&#45;&gt;Node4</title>
<g id="a_edge6_Node000004_Node000003"><a xlink:title=" ">
<path fill="none" stroke="#9a32cd" stroke-dasharray="5,2" d="M242.16,-88.73C240.43,-78.63 240.68,-67.33 247,-59 252.26,-52.07 265.16,-46.07 280.98,-41.03"/>
<polygon fill="#9a32cd" stroke="#9a32cd" points="238.8,-89.74 244.5,-98.66 245.61,-88.13 238.8,-89.74"/>
</a>
</g>
<text text-anchor="middle" x="283.5" y="-67.5" font-family="Helvetica,sans-Serif" font-size="10.00" fill="grey"> _current_state</text>
</g>
<!-- Node4&#45;&gt;Node3 -->
<g id="edge4_Node000003_Node000004" class="edge">
<title>Node4&#45;&gt;Node3</title>
<g id="a_edge4_Node000003_Node000004"><a xlink:title=" ">
<path fill="none" stroke="#9a32cd" stroke-dasharray="5,2" d="M356.03,-48.53C342.52,-62.98 327.83,-78.34 324,-81 313.77,-88.11 301.71,-94.15 290.33,-98.99"/>
<polygon fill="#9a32cd" stroke="#9a32cd" points="358.67,-50.83 362.93,-41.13 353.55,-46.06 358.67,-50.83"/>
</a>
</g>
<text text-anchor="middle" x="382.5" y="-73" font-family="Helvetica,sans-Serif" font-size="10.00" fill="grey"> _stateMachine</text>
<text text-anchor="middle" x="382.5" y="-62" font-family="Helvetica,sans-Serif" font-size="10.00" fill="grey">stateMachine</text>
</g>
</g>
</svg>
