<?xml version="1.0" encoding="UTF-8" standalone="no"?>
<!DOCTYPE svg PUBLIC "-//W3C//DTD SVG 1.1//EN"
 "http://www.w3.org/Graphics/SVG/1.1/DTD/svg11.dtd">
<!-- Generated by graphviz version 2.43.0 (0)
 -->
<!-- Title: Graphical Class Hierarchy Pages: 1 -->
<svg width="594pt" height="285pt"
 viewBox="0.00 0.00 594.00 285.00" xmlns="http://www.w3.org/2000/svg" xmlns:xlink="http://www.w3.org/1999/xlink">
<g id="graph0" class="graph" transform="scale(1 1) rotate(0) translate(4 281)">
<title>Graphical Class Hierarchy</title>
<!-- Node0 -->
<g id="Node000000" class="node">
<title>Node0</title>
<g id="a_Node000000"><a xlink:title=" ">
<polygon fill="#e0e0e0" stroke="#999999" points="42,-124 0,-124 0,-105 42,-105 42,-124"/>
<text text-anchor="middle" x="21" y="-112" font-family="Helvetica,sans-Serif" font-size="10.00">Node</text>
</a>
</g>
</g>
<!-- Node1 -->
<g id="Node000001" class="node">
<title>Node1</title>
<g id="a_Node000001"><a xlink:href="classNuevoProyectodeJuego_1_1scripts_1_1Maquinas__de__estados_1_1Movimiento_1_1MovementStateMachine.html" target="_top" xlink:title="Máquina de estados para el movimiento del jugador.">
<polygon fill="white" stroke="#666666" points="320,-213 78,-213 78,-172 320,-172 320,-213"/>
<text text-anchor="start" x="86" y="-201" font-family="Helvetica,sans-Serif" font-size="10.00">NuevoProyectodeJuego.scripts.</text>
<text text-anchor="start" x="86" y="-190" font-family="Helvetica,sans-Serif" font-size="10.00">Maquinas_de_estados.Movimiento.Movement</text>
<text text-anchor="middle" x="199" y="-179" font-family="Helvetica,sans-Serif" font-size="10.00">StateMachine</text>
</a>
</g>
</g>
<!-- Node0&#45;&gt;Node1 -->
<g id="edge6_Node000000_Node000001" class="edge">
<title>Node0&#45;&gt;Node1</title>
<g id="a_edge6_Node000000_Node000001"><a xlink:title=" ">
<path fill="none" stroke="#63b8ff" d="M37.68,-131.48C48.15,-141.87 62.77,-154.63 78,-162.5 84.87,-166.05 92.18,-169.19 99.67,-171.97"/>
<polygon fill="#63b8ff" stroke="#63b8ff" points="40,-128.85 30.53,-124.12 34.98,-133.73 40,-128.85"/>
</a>
</g>
</g>
<!-- Node2 -->
<g id="Node000002" class="node">
<title>Node2</title>
<g id="a_Node000002"><a xlink:href="classNuevoProyectodeJuego_1_1scripts_1_1Maquinas__de__estados_1_1State.html" target="_top" xlink:title="Clase base para todos los estados de la máquina de movimiento. Contiene los métodos ciclo de vida que...">
<polygon fill="white" stroke="#666666" points="283,-153.5 115,-153.5 115,-123.5 283,-123.5 283,-153.5"/>
<text text-anchor="start" x="123" y="-141.5" font-family="Helvetica,sans-Serif" font-size="10.00">NuevoProyectodeJuego.scripts.</text>
<text text-anchor="middle" x="199" y="-130.5" font-family="Helvetica,sans-Serif" font-size="10.00">Maquinas_de_estados.State</text>
</a>
</g>
</g>
<!-- Node0&#45;&gt;Node2 -->
<g id="edge7_Node000000_Node000002" class="edge">
<title>Node0&#45;&gt;Node2</title>
<g id="a_edge7_Node000000_Node000002"><a xlink:title=" ">
<path fill="none" stroke="#63b8ff" d="M52.25,-118.63C69.61,-120.99 92.33,-124.09 114.65,-127.13"/>
<polygon fill="#63b8ff" stroke="#63b8ff" points="52.57,-115.14 42.19,-117.25 51.62,-122.07 52.57,-115.14"/>
</a>
</g>
</g>
<!-- Node8 -->
<g id="Node000008" class="node">
<title>Node8</title>
<g id="a_Node000008"><a xlink:href="classNuevoProyectodeJuego_1_1scripts_1_1Menu_1_1MainMenu.html" target="_top" xlink:title="Controla el menú principal del juego (botones de iniciar, opciones y salir). Se mantienen los nombres...">
<polygon fill="white" stroke="#666666" points="283,-105.5 115,-105.5 115,-75.5 283,-75.5 283,-105.5"/>
<text text-anchor="start" x="123" y="-93.5" font-family="Helvetica,sans-Serif" font-size="10.00">NuevoProyectodeJuego.scripts.</text>
<text text-anchor="middle" x="199" y="-82.5" font-family="Helvetica,sans-Serif" font-size="10.00">Menu.MainMenu</text>
</a>
</g>
</g>
<!-- Node0&#45;&gt;Node8 -->
<g id="edge13_Node000000_Node000008" class="edge">
<title>Node0&#45;&gt;Node8</title>
<g id="a_edge13_Node000000_Node000008"><a xlink:title=" ">
<path fill="none" stroke="#63b8ff" d="M52.25,-110.37C69.61,-108.01 92.33,-104.91 114.65,-101.87"/>
<polygon fill="#63b8ff" stroke="#63b8ff" points="51.62,-106.93 42.19,-111.75 52.57,-113.86 51.62,-106.93"/>
</a>
</g>
</g>
<!-- Node9 -->
<g id="Node000009" class="node">
<title>Node9</title>
<g id="a_Node000009"><a xlink:href="classNuevoProyectodeJuego_1_1scripts_1_1Scenes_1_1Node2d.html" target="_top" xlink:title="Nodo2D que maneja la transición a la siguiente escena al entrar en un área específica.">
<polygon fill="white" stroke="#666666" points="283,-57.5 115,-57.5 115,-27.5 283,-27.5 283,-57.5"/>
<text text-anchor="start" x="123" y="-45.5" font-family="Helvetica,sans-Serif" font-size="10.00">NuevoProyectodeJuego.scripts.</text>
<text text-anchor="middle" x="199" y="-34.5" font-family="Helvetica,sans-Serif" font-size="10.00">Scenes.Node2d</text>
</a>
</g>
</g>
<!-- Node0&#45;&gt;Node9 -->
<g id="edge14_Node000000_Node000009" class="edge">
<title>Node0&#45;&gt;Node9</title>
<g id="a_edge14_Node000000_Node000009"><a xlink:title=" ">
<path fill="none" stroke="#63b8ff" d="M37.55,-97.27C47.98,-86.79 62.59,-74 78,-66.5 89.46,-60.92 102.14,-56.64 114.84,-53.35"/>
<polygon fill="#63b8ff" stroke="#63b8ff" points="34.82,-95.07 30.45,-104.72 39.88,-99.9 34.82,-95.07"/>
</a>
</g>
</g>
<!-- Node3 -->
<g id="Node000003" class="node">
<title>Node3</title>
<g id="a_Node000003"><a xlink:href="classNuevoProyectodeJuego_1_1scripts_1_1Maquinas__de__estados_1_1Movimiento_1_1Estados_1_1DoubleJumpMovementState.html" target="_top" xlink:title="Estado de movimiento para el doble salto del jugador.">
<polygon fill="white" stroke="#666666" points="586,-277 356,-277 356,-236 586,-236 586,-277"/>
<text text-anchor="start" x="364" y="-265" font-family="Helvetica,sans-Serif" font-size="10.00">NuevoProyectodeJuego.scripts.</text>
<text text-anchor="start" x="364" y="-254" font-family="Helvetica,sans-Serif" font-size="10.00">Maquinas_de_estados.Movimiento.Estados.</text>
<text text-anchor="middle" x="471" y="-243" font-family="Helvetica,sans-Serif" font-size="10.00">DoubleJumpMovementState</text>
</a>
</g>
</g>
<!-- Node2&#45;&gt;Node3 -->
<g id="edge8_Node000002_Node000003" class="edge">
<title>Node2&#45;&gt;Node3</title>
<g id="a_edge8_Node000002_Node000003"><a xlink:title=" ">
<path fill="none" stroke="#63b8ff" d="M292.53,-149.22C302.34,-152.79 311.74,-157.45 320,-163.5 346.33,-182.78 330.09,-207.65 356,-227.5 360.05,-230.61 364.4,-233.38 368.95,-235.86"/>
<polygon fill="#63b8ff" stroke="#63b8ff" points="293.61,-145.89 283.02,-146.11 291.44,-152.54 293.61,-145.89"/>
</a>
</g>
</g>
<!-- Node4 -->
<g id="Node000004" class="node">
<title>Node4</title>
<g id="a_Node000004"><a xlink:href="classNuevoProyectodeJuego_1_1scripts_1_1Maquinas__de__estados_1_1Movimiento_1_1Estados_1_1FallingMovementState.html" target="_top" xlink:title="Estado de movimiento para la caída del jugador.">
<polygon fill="white" stroke="#666666" points="586,-218 356,-218 356,-177 586,-177 586,-218"/>
<text text-anchor="start" x="364" y="-206" font-family="Helvetica,sans-Serif" font-size="10.00">NuevoProyectodeJuego.scripts.</text>
<text text-anchor="start" x="364" y="-195" font-family="Helvetica,sans-Serif" font-size="10.00">Maquinas_de_estados.Movimiento.Estados.</text>
<text text-anchor="middle" x="471" y="-184" font-family="Helvetica,sans-Serif" font-size="10.00">FallingMovementState</text>
</a>
</g>
</g>
<!-- Node2&#45;&gt;Node4 -->
<g id="edge9_Node000002_Node000004" class="edge">
<title>Node2&#45;&gt;Node4</title>
<g id="a_edge9_Node000002_Node000004"><a xlink:title=" ">
<path fill="none" stroke="#63b8ff" d="M283.18,-155.63C295.53,-158.23 308.1,-160.91 320,-163.5 339.57,-167.76 360.55,-172.44 380.43,-176.93"/>
<polygon fill="#63b8ff" stroke="#63b8ff" points="283.85,-152.2 273.34,-153.57 282.41,-159.05 283.85,-152.2"/>
</a>
</g>
</g>
<!-- Node5 -->
<g id="Node000005" class="node">
<title>Node5</title>
<g id="a_Node000005"><a xlink:href="classNuevoProyectodeJuego_1_1scripts_1_1Maquinas__de__estados_1_1Movimiento_1_1Estados_1_1IdleMovementState.html" target="_top" xlink:title="Estado de movimiento para el estado Idle del jugador.">
<polygon fill="white" stroke="#666666" points="586,-159 356,-159 356,-118 586,-118 586,-159"/>
<text text-anchor="start" x="364" y="-147" font-family="Helvetica,sans-Serif" font-size="10.00">NuevoProyectodeJuego.scripts.</text>
<text text-anchor="start" x="364" y="-136" font-family="Helvetica,sans-Serif" font-size="10.00">Maquinas_de_estados.Movimiento.Estados.</text>
<text text-anchor="middle" x="471" y="-125" font-family="Helvetica,sans-Serif" font-size="10.00">IdleMovementState</text>
</a>
</g>
</g>
<!-- Node2&#45;&gt;Node5 -->
<g id="edge10_Node000002_Node000005" class="edge">
<title>Node2&#45;&gt;Node5</title>
<g id="a_edge10_Node000002_Node000005"><a xlink:title=" ">
<path fill="none" stroke="#63b8ff" d="M293.29,-138.5C313.43,-138.5 334.95,-138.5 355.78,-138.5"/>
<polygon fill="#63b8ff" stroke="#63b8ff" points="293.21,-135 283.21,-138.5 293.21,-142 293.21,-135"/>
</a>
</g>
</g>
<!-- Node6 -->
<g id="Node000006" class="node">
<title>Node6</title>
<g id="a_Node000006"><a xlink:href="classNuevoProyectodeJuego_1_1scripts_1_1Maquinas__de__estados_1_1Movimiento_1_1Estados_1_1JumpingMovementState.html" target="_top" xlink:title="Estado de movimiento para el salto del jugador.">
<polygon fill="white" stroke="#666666" points="586,-100 356,-100 356,-59 586,-59 586,-100"/>
<text text-anchor="start" x="364" y="-88" font-family="Helvetica,sans-Serif" font-size="10.00">NuevoProyectodeJuego.scripts.</text>
<text text-anchor="start" x="364" y="-77" font-family="Helvetica,sans-Serif" font-size="10.00">Maquinas_de_estados.Movimiento.Estados.</text>
<text text-anchor="middle" x="471" y="-66" font-family="Helvetica,sans-Serif" font-size="10.00">JumpingMovementState</text>
</a>
</g>
</g>
<!-- Node2&#45;&gt;Node6 -->
<g id="edge11_Node000002_Node000006" class="edge">
<title>Node2&#45;&gt;Node6</title>
<g id="a_edge11_Node000002_Node000006"><a xlink:title=" ">
<path fill="none" stroke="#63b8ff" d="M286.71,-121.5C297.92,-119.2 309.24,-116.83 320,-114.5 340.78,-110 363.12,-104.92 384.04,-100.05"/>
<polygon fill="#63b8ff" stroke="#63b8ff" points="285.99,-118.07 276.89,-123.5 287.39,-124.93 285.99,-118.07"/>
</a>
</g>
</g>
<!-- Node7 -->
<g id="Node000007" class="node">
<title>Node7</title>
<g id="a_Node000007"><a xlink:href="classNuevoProyectodeJuego_1_1scripts_1_1Maquinas__de__estados_1_1Movimiento_1_1Estados_1_1RunningMovementState.html" target="_top" xlink:title="Estado de movimiento para la carrera del jugador.">
<polygon fill="white" stroke="#666666" points="586,-41 356,-41 356,0 586,0 586,-41"/>
<text text-anchor="start" x="364" y="-29" font-family="Helvetica,sans-Serif" font-size="10.00">NuevoProyectodeJuego.scripts.</text>
<text text-anchor="start" x="364" y="-18" font-family="Helvetica,sans-Serif" font-size="10.00">Maquinas_de_estados.Movimiento.Estados.</text>
<text text-anchor="middle" x="471" y="-7" font-family="Helvetica,sans-Serif" font-size="10.00">RunningMovementState</text>
</a>
</g>
</g>
<!-- Node2&#45;&gt;Node7 -->
<g id="edge12_Node000002_Node000007" class="edge">
<title>Node2&#45;&gt;Node7</title>
<g id="a_edge12_Node000002_Node000007"><a xlink:title=" ">
<path fill="none" stroke="#63b8ff" d="M292.85,-128.55C302.55,-125.05 311.83,-120.47 320,-114.5 346.66,-95.01 329.85,-69.67 356,-49.5 360.04,-46.38 364.38,-43.6 368.92,-41.11"/>
<polygon fill="#63b8ff" stroke="#63b8ff" points="291.49,-125.31 283.04,-131.7 293.63,-131.98 291.49,-125.31"/>
</a>
</g>
</g>
</g>
</svg>
