<?xml version="1.0" encoding="UTF-8" standalone="no"?>
<!DOCTYPE svg PUBLIC "-//W3C//DTD SVG 1.1//EN"
 "http://www.w3.org/Graphics/SVG/1.1/DTD/svg11.dtd">
<!-- Generated by graphviz version 14.0.5 (20251129.0259)
 -->
<!-- Title: NuevoProyectodeJuego.scripts.Player.Camera2d Pages: 1 -->
<svg width="251pt" height="183pt"
 viewBox="0.00 0.00 251.00 183.00" xmlns="http://www.w3.org/2000/svg" xmlns:xlink="http://www.w3.org/1999/xlink">
<g id="graph0" class="graph" transform="scale(1 1) rotate(0) translate(4 179)">
<title>NuevoProyectodeJuego.scripts.Player.Camera2d</title>
<!-- Node1 -->
<g id="Node000001" class="node">
<title>Node1</title>
<g id="a_Node000001"><a xlink:title="Clase que representa la cámara 2D del jugador.">
<polygon fill="#999999" stroke="#666666" points="155.5,-32 0,-32 0,0 155.5,0 155.5,-32"/>
<text xml:space="preserve" text-anchor="start" x="8" y="-18.5" font-family="Helvetica,sans-Serif" font-size="10.00">NuevoProyectodeJuego.scripts.</text>
<text xml:space="preserve" text-anchor="middle" x="77.75" y="-6.5" font-family="Helvetica,sans-Serif" font-size="10.00">Player.Camera2d</text>
</a>
</g>
</g>
<!-- Node2 -->
<g id="Node000002" class="node">
<title>Node2</title>
<g id="a_Node000002"><a xlink:title=" ">
<polygon fill="white" stroke="#666666" points="69.38,-112 6.12,-112 6.12,-92 69.38,-92 69.38,-112"/>
<text xml:space="preserve" text-anchor="middle" x="37.75" y="-98.5" font-family="Helvetica,sans-Serif" font-size="10.00">Camera2D</text>
</a>
</g>
</g>
<!-- Node2&#45;&gt;Node1 -->
<g id="edge1_Node000001_Node000002" class="edge">
<title>Node2&#45;&gt;Node1</title>
<g id="a_edge1_Node000001_Node000002"><a xlink:title=" ">
<path fill="none" stroke="#63b8ff" d="M47.04,-81.49C54.17,-66.52 63.88,-46.14 70.45,-32.32"/>
<polygon fill="#63b8ff" stroke="#63b8ff" points="43.97,-79.79 42.83,-90.32 50.29,-82.8 43.97,-79.79"/>
</a>
</g>
</g>
<!-- Node3 -->
<g id="Node000003" class="node">
<title>Node3</title>
<g id="a_Node000003"><a xlink:href="class_nuevo_proyectode_juego_1_1scripts_1_1_player_1_1_player.html" target="_top" xlink:title="Clase que representa al jugador.">
<polygon fill="white" stroke="#666666" points="242.5,-118 87,-118 87,-86 242.5,-86 242.5,-118"/>
<text xml:space="preserve" text-anchor="start" x="95" y="-104.5" font-family="Helvetica,sans-Serif" font-size="10.00">NuevoProyectodeJuego.scripts.</text>
<text xml:space="preserve" text-anchor="middle" x="164.75" y="-92.5" font-family="Helvetica,sans-Serif" font-size="10.00">Player.Player</text>
</a>
</g>
</g>
<!-- Node3&#45;&gt;Node1 -->
<g id="edge2_Node000001_Node000003" class="edge">
<title>Node3&#45;&gt;Node1</title>
<g id="a_edge2_Node000001_Node000003"><a xlink:title=" ">
<path fill="none" stroke="#9a32cd" stroke-dasharray="5,2" d="M140.9,-77.97C125.85,-63.44 106.82,-45.07 93.61,-32.31"/>
<polygon fill="#9a32cd" stroke="#9a32cd" points="138.08,-80.11 147.7,-84.54 142.94,-75.08 138.08,-80.11"/>
</a>
</g>
<text xml:space="preserve" text-anchor="start" x="132.04" y="-55.5" font-family="Helvetica,sans-Serif" font-size="10.00" fill="grey">player</text>
</g>
<!-- Node4 -->
<g id="Node000004" class="node">
<title>Node4</title>
<g id="a_Node000004"><a xlink:title=" ">
<polygon fill="white" stroke="#666666" points="211.75,-175 117.75,-175 117.75,-155 211.75,-155 211.75,-175"/>
<text xml:space="preserve" text-anchor="middle" x="164.75" y="-161.5" font-family="Helvetica,sans-Serif" font-size="10.00">CharacterBody2D</text>
</a>
</g>
</g>
<!-- Node4&#45;&gt;Node3 -->
<g id="edge3_Node000003_Node000004" class="edge">
<title>Node4&#45;&gt;Node3</title>
<g id="a_edge3_Node000003_Node000004"><a xlink:title=" ">
<path fill="none" stroke="#63b8ff" d="M164.75,-143.36C164.75,-135.07 164.75,-125.69 164.75,-118.06"/>
<polygon fill="#63b8ff" stroke="#63b8ff" points="161.25,-143.22 164.75,-153.22 168.25,-143.22 161.25,-143.22"/>
</a>
</g>
</g>
</g>
</svg>
