<?xml version="1.0" encoding="UTF-8" standalone="no"?>
<!DOCTYPE svg PUBLIC "-//W3C//DTD SVG 1.1//EN"
 "http://www.w3.org/Graphics/SVG/1.1/DTD/svg11.dtd">
<!-- Generated by graphviz version 14.0.5 (20251129.0259)
 -->
<!-- Title: NuevoProyectodeJuego.scripts.Maquinas_de_estados.Movimiento.Estados.FallingMovementState Pages: 1 -->
<svg width="561pt" height="151pt"
 viewBox="0.00 0.00 561.00 151.00" xmlns="http://www.w3.org/2000/svg" xmlns:xlink="http://www.w3.org/1999/xlink">
<g id="graph0" class="graph" transform="scale(1 1) rotate(0) translate(4 147)">
<title>NuevoProyectodeJuego.scripts.Maquinas_de_estados.Movimiento.Estados.FallingMovementState</title>
<!-- Node1 -->
<g id="Node000001" class="node">
<title>Node1</title>
<g id="a_Node000001"><a xlink:title="Estado de movimiento para la caída del jugador.">
<polygon fill="#999999" stroke="#666666" points="549.62,-143 340.88,-143 340.88,-99 549.62,-99 549.62,-143"/>
<text xml:space="preserve" text-anchor="start" x="348.88" y="-129.5" font-family="Helvetica,sans-Serif" font-size="10.00">NuevoProyectodeJuego.scripts.</text>
<text xml:space="preserve" text-anchor="start" x="348.88" y="-117.5" font-family="Helvetica,sans-Serif" font-size="10.00">Maquinas_de_estados.Movimiento.Estados.</text>
<text xml:space="preserve" text-anchor="middle" x="445.25" y="-105.5" font-family="Helvetica,sans-Serif" font-size="10.00">FallingMovementState</text>
</a>
</g>
</g>
<!-- Node2 -->
<g id="Node000002" class="node">
<title>Node2</title>
<g id="a_Node000002"><a xlink:href="class_nuevo_proyectode_juego_1_1scripts_1_1_maquinas__de__estados_1_1_state.html" target="_top" xlink:title="Clase base para todos los estados de la máquina de movimiento. Contiene los métodos ciclo de vida que...">
<polygon fill="white" stroke="#666666" points="231.75,-81 76.25,-81 76.25,-49 231.75,-49 231.75,-81"/>
<text xml:space="preserve" text-anchor="start" x="84.25" y="-67.5" font-family="Helvetica,sans-Serif" font-size="10.00">NuevoProyectodeJuego.scripts.</text>
<text xml:space="preserve" text-anchor="middle" x="154" y="-55.5" font-family="Helvetica,sans-Serif" font-size="10.00">Maquinas_de_estados.State</text>
</a>
</g>
</g>
<!-- Node2&#45;&gt;Node1 -->
<g id="edge1_Node000001_Node000002" class="edge">
<title>Node2&#45;&gt;Node1</title>
<g id="a_edge1_Node000001_Node000002"><a xlink:title=" ">
<path fill="none" stroke="#63b8ff" d="M224.66,-84.22C233.08,-86.3 241.59,-88.28 249.75,-90 279.02,-96.18 311.01,-101.76 340.43,-106.42"/>
<polygon fill="#63b8ff" stroke="#63b8ff" points="225.68,-80.87 215.13,-81.82 223.97,-87.66 225.68,-80.87"/>
</a>
</g>
</g>
<!-- Node4 -->
<g id="Node000004" class="node">
<title>Node4</title>
<g id="a_Node000004"><a xlink:href="class_nuevo_proyectode_juego_1_1scripts_1_1_maquinas__de__estados_1_1_movimiento_1_1_movement_state_machine.html" target="_top" xlink:title="Máquina de estados para el movimiento del jugador.">
<polygon fill="white" stroke="#666666" points="553,-53 337.5,-53 337.5,-9 553,-9 553,-53"/>
<text xml:space="preserve" text-anchor="start" x="345.5" y="-39.5" font-family="Helvetica,sans-Serif" font-size="10.00">NuevoProyectodeJuego.scripts.</text>
<text xml:space="preserve" text-anchor="start" x="345.5" y="-27.5" font-family="Helvetica,sans-Serif" font-size="10.00">Maquinas_de_estados.Movimiento.Movement</text>
<text xml:space="preserve" text-anchor="middle" x="445.25" y="-15.5" font-family="Helvetica,sans-Serif" font-size="10.00">StateMachine</text>
</a>
</g>
</g>
<!-- Node2&#45;&gt;Node4 -->
<g id="edge5_Node000004_Node000002" class="edge">
<title>Node2&#45;&gt;Node4</title>
<g id="a_edge5_Node000004_Node000002"><a xlink:title=" ">
<path fill="none" stroke="#9a32cd" stroke-dasharray="5,2" d="M243.47,-65.96C245.59,-65.98 247.68,-65.99 249.75,-66 280.75,-66.16 288.79,-70.23 319.5,-66 338.44,-63.39 358.56,-58.66 376.98,-53.5"/>
<polygon fill="#9a32cd" stroke="#9a32cd" points="243.59,-62.46 233.56,-65.89 243.54,-69.46 243.59,-62.46"/>
</a>
</g>
<text xml:space="preserve" text-anchor="start" x="253.5" y="-73.42" font-family="Helvetica,sans-Serif" font-size="10.00" fill="grey">_current_state</text>
</g>
<!-- Node3 -->
<g id="Node000003" class="node">
<title>Node3</title>
<g id="a_Node000003"><a xlink:title=" ">
<polygon fill="white" stroke="#666666" points="39.25,-20 0,-20 0,0 39.25,0 39.25,-20"/>
<text xml:space="preserve" text-anchor="middle" x="19.62" y="-6.5" font-family="Helvetica,sans-Serif" font-size="10.00">Node</text>
</a>
</g>
</g>
<!-- Node3&#45;&gt;Node2 -->
<g id="edge2_Node000002_Node000003" class="edge">
<title>Node3&#45;&gt;Node2</title>
<g id="a_edge2_Node000002_Node000003"><a xlink:title=" ">
<path fill="none" stroke="#63b8ff" d="M50.1,-22.25C68.72,-29.98 93.02,-40.08 113.33,-48.52"/>
<polygon fill="#63b8ff" stroke="#63b8ff" points="51.57,-19.07 40.99,-18.46 48.88,-25.53 51.57,-19.07"/>
</a>
</g>
</g>
<!-- Node3&#45;&gt;Node4 -->
<g id="edge4_Node000004_Node000003" class="edge">
<title>Node3&#45;&gt;Node4</title>
<g id="a_edge4_Node000004_Node000003"><a xlink:title=" ">
<path fill="none" stroke="#63b8ff" d="M50.97,-10.9C104.99,-12.57 221.37,-16.49 319.5,-22 325.25,-22.32 331.14,-22.67 337.09,-23.05"/>
<polygon fill="#63b8ff" stroke="#63b8ff" points="51.13,-7.4 41.03,-10.6 50.92,-14.4 51.13,-7.4"/>
</a>
</g>
</g>
<!-- Node4&#45;&gt;Node2 -->
<g id="edge3_Node000002_Node000004" class="edge">
<title>Node4&#45;&gt;Node2</title>
<g id="a_edge3_Node000002_Node000004"><a xlink:title=" ">
<path fill="none" stroke="#9a32cd" stroke-dasharray="5,2" d="M325.71,-25.4C300.5,-25.94 274.14,-27.81 249.75,-32 230.52,-35.3 209.98,-42.03 192.96,-48.56"/>
<polygon fill="#9a32cd" stroke="#9a32cd" points="325.73,-28.9 335.68,-25.26 325.64,-21.9 325.73,-28.9"/>
</a>
</g>
<text xml:space="preserve" text-anchor="start" x="252.75" y="-53.5" font-family="Helvetica,sans-Serif" font-size="10.00" fill="grey">_stateMachine</text>
<text xml:space="preserve" text-anchor="start" x="252.75" y="-37.5" font-family="Helvetica,sans-Serif" font-size="10.00" fill="grey">stateMachine</text>
</g>
</g>
</svg>
