<?xml version="1.0" encoding="UTF-8" standalone="no"?>
<!DOCTYPE svg PUBLIC "-//W3C//DTD SVG 1.1//EN"
 "http://www.w3.org/Graphics/SVG/1.1/DTD/svg11.dtd">
<!-- Generated by graphviz version 14.0.5 (20251129.0259)
 -->
<!-- Title: NuevoProyectodeJuego.scripts.Maquinas_de_estados.State Pages: 1 -->
<svg width="484pt" height="300pt"
 viewBox="0.00 0.00 484.00 300.00" xmlns="http://www.w3.org/2000/svg" xmlns:xlink="http://www.w3.org/1999/xlink">
<g id="graph0" class="graph" transform="scale(1 1) rotate(0) translate(4 296)">
<title>NuevoProyectodeJuego.scripts.Maquinas_de_estados.State</title>
<!-- Node1 -->
<g id="Node000001" class="node">
<title>Node1</title>
<g id="a_Node000001"><a xlink:title="Clase base para todos los estados de la máquina de movimiento. Contiene los métodos ciclo de vida que...">
<polygon fill="#999999" stroke="#666666" points="230.75,-162 75.25,-162 75.25,-130 230.75,-130 230.75,-162"/>
<text xml:space="preserve" text-anchor="start" x="83.25" y="-148.5" font-family="Helvetica,sans-Serif" font-size="10.00">NuevoProyectodeJuego.scripts.</text>
<text xml:space="preserve" text-anchor="middle" x="153" y="-136.5" font-family="Helvetica,sans-Serif" font-size="10.00">Maquinas_de_estados.State</text>
</a>
</g>
</g>
<!-- Node3 -->
<g id="Node000003" class="node">
<title>Node3</title>
<g id="a_Node000003"><a xlink:href="class_nuevo_proyectode_juego_1_1scripts_1_1_maquinas__de__estados_1_1_movimiento_1_1_estados_1_1_double_jump_movement_state.html" target="_top" xlink:title="Estado de movimiento para el doble salto del jugador.">
<polygon fill="white" stroke="#666666" points="475.5,-292 266.75,-292 266.75,-248 475.5,-248 475.5,-292"/>
<text xml:space="preserve" text-anchor="start" x="274.75" y="-278.5" font-family="Helvetica,sans-Serif" font-size="10.00">NuevoProyectodeJuego.scripts.</text>
<text xml:space="preserve" text-anchor="start" x="274.75" y="-266.5" font-family="Helvetica,sans-Serif" font-size="10.00">Maquinas_de_estados.Movimiento.Estados.</text>
<text xml:space="preserve" text-anchor="middle" x="371.12" y="-254.5" font-family="Helvetica,sans-Serif" font-size="10.00">DoubleJumpMovementState</text>
</a>
</g>
</g>
<!-- Node1&#45;&gt;Node3 -->
<g id="edge2_Node000001_Node000003" class="edge">
<title>Node1&#45;&gt;Node3</title>
<g id="a_edge2_Node000001_Node000003"><a xlink:title=" ">
<path fill="none" stroke="#63b8ff" d="M177.84,-170.56C199.34,-191.43 232.72,-220.82 266.75,-239 272.62,-242.13 278.85,-244.99 285.22,-247.6"/>
<polygon fill="#63b8ff" stroke="#63b8ff" points="180.31,-168.08 170.74,-163.53 175.38,-173.05 180.31,-168.08"/>
</a>
</g>
</g>
<!-- Node4 -->
<g id="Node000004" class="node">
<title>Node4</title>
<g id="a_Node000004"><a xlink:href="class_nuevo_proyectode_juego_1_1scripts_1_1_maquinas__de__estados_1_1_movimiento_1_1_estados_1_1_falling_movement_state.html" target="_top" xlink:title="Estado de movimiento para la caída del jugador.">
<polygon fill="white" stroke="#666666" points="475.5,-230 266.75,-230 266.75,-186 475.5,-186 475.5,-230"/>
<text xml:space="preserve" text-anchor="start" x="274.75" y="-216.5" font-family="Helvetica,sans-Serif" font-size="10.00">NuevoProyectodeJuego.scripts.</text>
<text xml:space="preserve" text-anchor="start" x="274.75" y="-204.5" font-family="Helvetica,sans-Serif" font-size="10.00">Maquinas_de_estados.Movimiento.Estados.</text>
<text xml:space="preserve" text-anchor="middle" x="371.12" y="-192.5" font-family="Helvetica,sans-Serif" font-size="10.00">FallingMovementState</text>
</a>
</g>
</g>
<!-- Node1&#45;&gt;Node4 -->
<g id="edge3_Node000001_Node000004" class="edge">
<title>Node1&#45;&gt;Node4</title>
<g id="a_edge3_Node000001_Node000004"><a xlink:title=" ">
<path fill="none" stroke="#63b8ff" d="M222.3,-165.59C244.37,-171.92 269.01,-178.99 291.75,-185.52"/>
<polygon fill="#63b8ff" stroke="#63b8ff" points="223.38,-162.26 212.8,-162.87 221.45,-168.99 223.38,-162.26"/>
</a>
</g>
</g>
<!-- Node5 -->
<g id="Node000005" class="node">
<title>Node5</title>
<g id="a_Node000005"><a xlink:href="class_nuevo_proyectode_juego_1_1scripts_1_1_maquinas__de__estados_1_1_movimiento_1_1_estados_1_1_idle_movement_state.html" target="_top" xlink:title="Estado de movimiento para el estado Idle del jugador.">
<polygon fill="white" stroke="#666666" points="475.5,-168 266.75,-168 266.75,-124 475.5,-124 475.5,-168"/>
<text xml:space="preserve" text-anchor="start" x="274.75" y="-154.5" font-family="Helvetica,sans-Serif" font-size="10.00">NuevoProyectodeJuego.scripts.</text>
<text xml:space="preserve" text-anchor="start" x="274.75" y="-142.5" font-family="Helvetica,sans-Serif" font-size="10.00">Maquinas_de_estados.Movimiento.Estados.</text>
<text xml:space="preserve" text-anchor="middle" x="371.12" y="-130.5" font-family="Helvetica,sans-Serif" font-size="10.00">IdleMovementState</text>
</a>
</g>
</g>
<!-- Node1&#45;&gt;Node5 -->
<g id="edge4_Node000001_Node000005" class="edge">
<title>Node1&#45;&gt;Node5</title>
<g id="a_edge4_Node000001_Node000005"><a xlink:title=" ">
<path fill="none" stroke="#63b8ff" d="M242.59,-146C250.51,-146 258.58,-146 266.61,-146"/>
<polygon fill="#63b8ff" stroke="#63b8ff" points="242.62,-142.5 232.62,-146 242.62,-149.5 242.62,-142.5"/>
</a>
</g>
</g>
<!-- Node6 -->
<g id="Node000006" class="node">
<title>Node6</title>
<g id="a_Node000006"><a xlink:href="class_nuevo_proyectode_juego_1_1scripts_1_1_maquinas__de__estados_1_1_movimiento_1_1_estados_1_1_jumping_movement_state.html" target="_top" xlink:title="Estado de movimiento para el salto del jugador.">
<polygon fill="white" stroke="#666666" points="475.5,-106 266.75,-106 266.75,-62 475.5,-62 475.5,-106"/>
<text xml:space="preserve" text-anchor="start" x="274.75" y="-92.5" font-family="Helvetica,sans-Serif" font-size="10.00">NuevoProyectodeJuego.scripts.</text>
<text xml:space="preserve" text-anchor="start" x="274.75" y="-80.5" font-family="Helvetica,sans-Serif" font-size="10.00">Maquinas_de_estados.Movimiento.Estados.</text>
<text xml:space="preserve" text-anchor="middle" x="371.12" y="-68.5" font-family="Helvetica,sans-Serif" font-size="10.00">JumpingMovementState</text>
</a>
</g>
</g>
<!-- Node1&#45;&gt;Node6 -->
<g id="edge5_Node000001_Node000006" class="edge">
<title>Node1&#45;&gt;Node6</title>
<g id="a_edge5_Node000001_Node000006"><a xlink:title=" ">
<path fill="none" stroke="#63b8ff" d="M222.3,-126.41C244.37,-120.08 269.01,-113.01 291.75,-106.48"/>
<polygon fill="#63b8ff" stroke="#63b8ff" points="221.45,-123.01 212.8,-129.13 223.38,-129.74 221.45,-123.01"/>
</a>
</g>
</g>
<!-- Node7 -->
<g id="Node000007" class="node">
<title>Node7</title>
<g id="a_Node000007"><a xlink:href="class_nuevo_proyectode_juego_1_1scripts_1_1_maquinas__de__estados_1_1_movimiento_1_1_estados_1_1_running_movement_state.html" target="_top" xlink:title="Estado de movimiento para la carrera del jugador.">
<polygon fill="white" stroke="#666666" points="475.5,-44 266.75,-44 266.75,0 475.5,0 475.5,-44"/>
<text xml:space="preserve" text-anchor="start" x="274.75" y="-30.5" font-family="Helvetica,sans-Serif" font-size="10.00">NuevoProyectodeJuego.scripts.</text>
<text xml:space="preserve" text-anchor="start" x="274.75" y="-18.5" font-family="Helvetica,sans-Serif" font-size="10.00">Maquinas_de_estados.Movimiento.Estados.</text>
<text xml:space="preserve" text-anchor="middle" x="371.12" y="-6.5" font-family="Helvetica,sans-Serif" font-size="10.00">RunningMovementState</text>
</a>
</g>
</g>
<!-- Node1&#45;&gt;Node7 -->
<g id="edge6_Node000001_Node000007" class="edge">
<title>Node1&#45;&gt;Node7</title>
<g id="a_edge6_Node000001_Node000007"><a xlink:title=" ">
<path fill="none" stroke="#63b8ff" d="M177.84,-121.44C199.34,-100.57 232.72,-71.18 266.75,-53 272.62,-49.87 278.85,-47.01 285.22,-44.4"/>
<polygon fill="#63b8ff" stroke="#63b8ff" points="175.38,-118.95 170.74,-128.47 180.31,-123.92 175.38,-118.95"/>
</a>
</g>
</g>
<!-- Node2 -->
<g id="Node000002" class="node">
<title>Node2</title>
<g id="a_Node000002"><a xlink:title=" ">
<polygon fill="white" stroke="#666666" points="39.25,-156 0,-156 0,-136 39.25,-136 39.25,-156"/>
<text xml:space="preserve" text-anchor="middle" x="19.62" y="-142.5" font-family="Helvetica,sans-Serif" font-size="10.00">Node</text>
</a>
</g>
</g>
<!-- Node2&#45;&gt;Node1 -->
<g id="edge1_Node000001_Node000002" class="edge">
<title>Node2&#45;&gt;Node1</title>
<g id="a_edge1_Node000001_Node000002"><a xlink:title=" ">
<path fill="none" stroke="#63b8ff" d="M51.14,-146C58.44,-146 66.56,-146 74.94,-146"/>
<polygon fill="#63b8ff" stroke="#63b8ff" points="51.24,-142.5 41.24,-146 51.24,-149.5 51.24,-142.5"/>
</a>
</g>
</g>
</g>
</svg>
