<?xml version="1.0" encoding="UTF-8" standalone="no"?>
<!DOCTYPE svg PUBLIC "-//W3C//DTD SVG 1.1//EN"
 "http://www.w3.org/Graphics/SVG/1.1/DTD/svg11.dtd">
<!-- Generated by graphviz version 14.0.5 (20251129.0259)
 -->
<!-- Title: MainMenu Pages: 1 -->
<svg width="138pt" height="159pt"
 viewBox="0.00 0.00 138.00 159.00" xmlns="http://www.w3.org/2000/svg" xmlns:xlink="http://www.w3.org/1999/xlink">
<g id="graph0" class="graph" transform="scale(1 1) rotate(0) translate(4 155)">
<title>MainMenu</title>
<!-- Node1 -->
<g id="Node000001" class="node">
<title>Node1</title>
<g id="a_Node000001"><a xlink:title=" ">
<polygon fill="#999999" stroke="#666666" points="66.12,-20 5.13,-20 5.13,0 66.12,0 66.12,-20"/>
<text xml:space="preserve" text-anchor="middle" x="35.62" y="-6.5" font-family="Helvetica,sans-Serif" font-size="10.00">MainMenu</text>
</a>
</g>
</g>
<!-- Node2 -->
<g id="Node000002" class="node">
<title>Node2</title>
<g id="a_Node000002"><a xlink:title=" ">
<polygon fill="white" stroke="#666666" points="39.25,-94 0,-94 0,-74 39.25,-74 39.25,-94"/>
<text xml:space="preserve" text-anchor="middle" x="19.62" y="-80.5" font-family="Helvetica,sans-Serif" font-size="10.00">Node</text>
</a>
</g>
</g>
<!-- Node2&#45;&gt;Node1 -->
<g id="edge1_Node000001_Node000002" class="edge">
<title>Node2&#45;&gt;Node1</title>
<g id="a_edge1_Node000001_Node000002"><a xlink:title=" ">
<path fill="none" stroke="#63b8ff" d="M24.16,-62.6C27.26,-48.65 31.22,-30.82 33.58,-20.19"/>
<polygon fill="#63b8ff" stroke="#63b8ff" points="20.8,-61.59 22.05,-72.11 27.63,-63.11 20.8,-61.59"/>
</a>
</g>
</g>
<!-- Node3 -->
<g id="Node000003" class="node">
<title>Node3</title>
<g id="a_Node000003"><a xlink:href="class_settings.html" target="_top" xlink:title=" ">
<polygon fill="white" stroke="#666666" points="109.62,-94 57.62,-94 57.62,-74 109.62,-74 109.62,-94"/>
<text xml:space="preserve" text-anchor="middle" x="83.62" y="-80.5" font-family="Helvetica,sans-Serif" font-size="10.00">Settings</text>
</a>
</g>
</g>
<!-- Node3&#45;&gt;Node1 -->
<g id="edge2_Node000001_Node000003" class="edge">
<title>Node3&#45;&gt;Node1</title>
<g id="a_edge2_Node000001_Node000003"><a xlink:title=" ">
<path fill="none" stroke="#9a32cd" stroke-dasharray="5,2" d="M71.14,-64.27C61.69,-50.1 49.12,-31.25 41.75,-20.19"/>
<polygon fill="#9a32cd" stroke="#9a32cd" points="68.05,-65.95 76.51,-72.33 73.88,-62.07 68.05,-65.95"/>
</a>
</g>
<text xml:space="preserve" text-anchor="start" x="68.34" y="-43.5" font-family="Helvetica,sans-Serif" font-size="10.00" fill="grey">settingsMenu</text>
</g>
<!-- Node4 -->
<g id="Node000004" class="node">
<title>Node4</title>
<g id="a_Node000004"><a xlink:title=" ">
<polygon fill="white" stroke="#666666" points="107.38,-151 59.88,-151 59.88,-131 107.38,-131 107.38,-151"/>
<text xml:space="preserve" text-anchor="middle" x="83.62" y="-137.5" font-family="Helvetica,sans-Serif" font-size="10.00">Control</text>
</a>
</g>
</g>
<!-- Node4&#45;&gt;Node3 -->
<g id="edge3_Node000003_Node000004" class="edge">
<title>Node4&#45;&gt;Node3</title>
<g id="a_edge3_Node000003_Node000004"><a xlink:title=" ">
<path fill="none" stroke="#63b8ff" d="M83.62,-119.69C83.62,-110.97 83.62,-101.22 83.62,-94.28"/>
<polygon fill="#63b8ff" stroke="#63b8ff" points="80.13,-119.4 83.63,-129.4 87.13,-119.4 80.13,-119.4"/>
</a>
</g>
</g>
</g>
</svg>
