<?xml version="1.0" encoding="UTF-8" standalone="no"?>
<!DOCTYPE svg PUBLIC "-//W3C//DTD SVG 1.1//EN"
 "http://www.w3.org/Graphics/SVG/1.1/DTD/svg11.dtd">
<!-- Generated by graphviz version 14.0.5 (20251129.0259)
 -->
<!-- Title: NuevoProyectodeJuego.scripts.Menu.MainMenu Pages: 1 -->
<svg width="242pt" height="183pt"
 viewBox="0.00 0.00 242.00 183.00" xmlns="http://www.w3.org/2000/svg" xmlns:xlink="http://www.w3.org/1999/xlink">
<g id="graph0" class="graph" transform="scale(1 1) rotate(0) translate(4 179)">
<title>NuevoProyectodeJuego.scripts.Menu.MainMenu</title>
<!-- Node1 -->
<g id="Node000001" class="node">
<title>Node1</title>
<g id="a_Node000001"><a xlink:title="Controla el menú principal del juego (botones de iniciar, opciones y salir). Se mantienen los nombres...">
<polygon fill="#999999" stroke="#666666" points="155.5,-32 0,-32 0,0 155.5,0 155.5,-32"/>
<text xml:space="preserve" text-anchor="start" x="8" y="-18.5" font-family="Helvetica,sans-Serif" font-size="10.00">NuevoProyectodeJuego.scripts.</text>
<text xml:space="preserve" text-anchor="middle" x="77.75" y="-6.5" font-family="Helvetica,sans-Serif" font-size="10.00">Menu.MainMenu</text>
</a>
</g>
</g>
<!-- Node2 -->
<g id="Node000002" class="node">
<title>Node2</title>
<g id="a_Node000002"><a xlink:title=" ">
<polygon fill="white" stroke="#666666" points="60.38,-112 21.12,-112 21.12,-92 60.38,-92 60.38,-112"/>
<text xml:space="preserve" text-anchor="middle" x="40.75" y="-98.5" font-family="Helvetica,sans-Serif" font-size="10.00">Node</text>
</a>
</g>
</g>
<!-- Node2&#45;&gt;Node1 -->
<g id="edge1_Node000001_Node000002" class="edge">
<title>Node2&#45;&gt;Node1</title>
<g id="a_edge1_Node000001_Node000002"><a xlink:title=" ">
<path fill="none" stroke="#63b8ff" d="M49.34,-81.49C55.94,-66.52 64.92,-46.14 71,-32.32"/>
<polygon fill="#63b8ff" stroke="#63b8ff" points="46.29,-79.74 45.46,-90.3 52.7,-82.56 46.29,-79.74"/>
</a>
</g>
</g>
<!-- Node3 -->
<g id="Node000003" class="node">
<title>Node3</title>
<g id="a_Node000003"><a xlink:href="class_nuevo_proyectode_juego_1_1scripts_1_1_menu_1_1_sub_menus_1_1_settings.html" target="_top" xlink:title="Panel de configuración (resolución, volumen y otras opciones). Añadido namespace y comentarios para D...">
<polygon fill="white" stroke="#666666" points="233.5,-118 78,-118 78,-86 233.5,-86 233.5,-118"/>
<text xml:space="preserve" text-anchor="start" x="86" y="-104.5" font-family="Helvetica,sans-Serif" font-size="10.00">NuevoProyectodeJuego.scripts.</text>
<text xml:space="preserve" text-anchor="middle" x="155.75" y="-92.5" font-family="Helvetica,sans-Serif" font-size="10.00">Menu.SubMenus.Settings</text>
</a>
</g>
</g>
<!-- Node3&#45;&gt;Node1 -->
<g id="edge2_Node000001_Node000003" class="edge">
<title>Node3&#45;&gt;Node1</title>
<g id="a_edge2_Node000001_Node000003"><a xlink:title=" ">
<path fill="none" stroke="#9a32cd" stroke-dasharray="5,2" d="M133.62,-77.16C120.24,-62.76 103.59,-44.83 91.97,-32.31"/>
<polygon fill="#9a32cd" stroke="#9a32cd" points="131.04,-79.54 140.41,-84.48 136.17,-74.77 131.04,-79.54"/>
</a>
</g>
<text xml:space="preserve" text-anchor="start" x="126.74" y="-55.5" font-family="Helvetica,sans-Serif" font-size="10.00" fill="grey">settingsMenu</text>
</g>
<!-- Node4 -->
<g id="Node000004" class="node">
<title>Node4</title>
<g id="a_Node000004"><a xlink:title=" ">
<polygon fill="white" stroke="#666666" points="179.5,-175 132,-175 132,-155 179.5,-155 179.5,-175"/>
<text xml:space="preserve" text-anchor="middle" x="155.75" y="-161.5" font-family="Helvetica,sans-Serif" font-size="10.00">Control</text>
</a>
</g>
</g>
<!-- Node4&#45;&gt;Node3 -->
<g id="edge3_Node000003_Node000004" class="edge">
<title>Node4&#45;&gt;Node3</title>
<g id="a_edge3_Node000003_Node000004"><a xlink:title=" ">
<path fill="none" stroke="#63b8ff" d="M155.75,-143.36C155.75,-135.07 155.75,-125.69 155.75,-118.06"/>
<polygon fill="#63b8ff" stroke="#63b8ff" points="152.25,-143.22 155.75,-153.22 159.25,-143.22 152.25,-143.22"/>
</a>
</g>
</g>
</g>
</svg>
