<?xml version="1.0" encoding="UTF-8" standalone="no"?>
<!DOCTYPE svg PUBLIC "-//W3C//DTD SVG 1.1//EN"
 "http://www.w3.org/Graphics/SVG/1.1/DTD/svg11.dtd">
<!-- Generated by graphviz version 14.0.5 (20251129.0259)
 -->
<!-- Title: Graphical Class Hierarchy Pages: 1 -->
<svg width="544pt" height="300pt"
 viewBox="0.00 0.00 544.00 300.00" xmlns="http://www.w3.org/2000/svg" xmlns:xlink="http://www.w3.org/1999/xlink">
<g id="graph0" class="graph" transform="scale(1 1) rotate(0) translate(4 296)">
<title>Graphical Class Hierarchy</title>
<!-- Node0 -->
<g id="Node000000" class="node">
<title>Node0</title>
<g id="a_Node000000"><a xlink:title=" ">
<polygon fill="#e0e0e0" stroke="#999999" points="39.25,-184 0,-184 0,-164 39.25,-164 39.25,-184"/>
<text xml:space="preserve" text-anchor="middle" x="19.62" y="-170.5" font-family="Helvetica,sans-Serif" font-size="10.00">Node</text>
</a>
</g>
</g>
<!-- Node1 -->
<g id="Node000001" class="node">
<title>Node1</title>
<g id="a_Node000001"><a xlink:href="class_nuevo_proyectode_juego_1_1scripts_1_1_maquinas__de__estados_1_1_movimiento_1_1_movement_state_machine.html" target="_top" xlink:title="Máquina de estados para el movimiento del jugador.">
<polygon fill="white" stroke="#666666" points="290.75,-224 75.25,-224 75.25,-180 290.75,-180 290.75,-224"/>
<text xml:space="preserve" text-anchor="start" x="83.25" y="-210.5" font-family="Helvetica,sans-Serif" font-size="10.00">NuevoProyectodeJuego.scripts.</text>
<text xml:space="preserve" text-anchor="start" x="83.25" y="-198.5" font-family="Helvetica,sans-Serif" font-size="10.00">Maquinas_de_estados.Movimiento.Movement</text>
<text xml:space="preserve" text-anchor="middle" x="183" y="-186.5" font-family="Helvetica,sans-Serif" font-size="10.00">StateMachine</text>
</a>
</g>
</g>
<!-- Node0&#45;&gt;Node1 -->
<g id="edge3_Node000000_Node000001" class="edge">
<title>Node0&#45;&gt;Node1</title>
<g id="a_edge3_Node000000_Node000001"><a xlink:title=" ">
<path fill="none" stroke="#63b8ff" d="M50.53,-179.19C57.91,-180.47 66.24,-181.92 75.04,-183.44"/>
<polygon fill="#63b8ff" stroke="#63b8ff" points="51.4,-175.79 40.94,-177.53 50.2,-182.68 51.4,-175.79"/>
</a>
</g>
</g>
<!-- Node2 -->
<g id="Node000002" class="node">
<title>Node2</title>
<g id="a_Node000002"><a xlink:href="class_nuevo_proyectode_juego_1_1scripts_1_1_maquinas__de__estados_1_1_state.html" target="_top" xlink:title="Clase base para todos los estados de la máquina de movimiento. Contiene los métodos ciclo de vida que...">
<polygon fill="white" stroke="#666666" points="260.75,-162 105.25,-162 105.25,-130 260.75,-130 260.75,-162"/>
<text xml:space="preserve" text-anchor="start" x="113.25" y="-148.5" font-family="Helvetica,sans-Serif" font-size="10.00">NuevoProyectodeJuego.scripts.</text>
<text xml:space="preserve" text-anchor="middle" x="183" y="-136.5" font-family="Helvetica,sans-Serif" font-size="10.00">Maquinas_de_estados.State</text>
</a>
</g>
</g>
<!-- Node0&#45;&gt;Node2 -->
<g id="edge4_Node000000_Node000002" class="edge">
<title>Node0&#45;&gt;Node2</title>
<g id="a_edge4_Node000000_Node000002"><a xlink:title=" ">
<path fill="none" stroke="#63b8ff" d="M50.35,-168.84C65.77,-166.17 85.39,-162.76 104.75,-159.4"/>
<polygon fill="#63b8ff" stroke="#63b8ff" points="50.2,-165.32 40.94,-170.47 51.4,-172.21 50.2,-165.32"/>
</a>
</g>
</g>
<!-- Node3 -->
<g id="Node000003" class="node">
<title>Node3</title>
<g id="a_Node000003"><a xlink:href="class_nuevo_proyectode_juego_1_1scripts_1_1_maquinas__de__estados_1_1_movimiento_1_1_estados_1_1_double_jump_movement_state.html" target="_top" xlink:title="Estado de movimiento para el doble salto del jugador.">
<polygon fill="white" stroke="#666666" points="535.5,-292 326.75,-292 326.75,-248 535.5,-248 535.5,-292"/>
<text xml:space="preserve" text-anchor="start" x="334.75" y="-278.5" font-family="Helvetica,sans-Serif" font-size="10.00">NuevoProyectodeJuego.scripts.</text>
<text xml:space="preserve" text-anchor="start" x="334.75" y="-266.5" font-family="Helvetica,sans-Serif" font-size="10.00">Maquinas_de_estados.Movimiento.Estados.</text>
<text xml:space="preserve" text-anchor="middle" x="431.12" y="-254.5" font-family="Helvetica,sans-Serif" font-size="10.00">DoubleJumpMovementState</text>
</a>
</g>
</g>
<!-- Node2&#45;&gt;Node3 -->
<g id="edge5_Node000002_Node000003" class="edge">
<title>Node2&#45;&gt;Node3</title>
<g id="a_edge5_Node000002_Node000003"><a xlink:title=" ">
<path fill="none" stroke="#63b8ff" d="M271.42,-159.67C278.32,-162.74 284.88,-166.47 290.75,-171 317.83,-191.88 300.32,-217.3 326.75,-239 330.66,-242.21 334.89,-245.09 339.34,-247.67"/>
<polygon fill="#63b8ff" stroke="#63b8ff" points="273.1,-156.57 262.52,-156.18 270.55,-163.09 273.1,-156.57"/>
</a>
</g>
</g>
<!-- Node4 -->
<g id="Node000004" class="node">
<title>Node4</title>
<g id="a_Node000004"><a xlink:href="class_nuevo_proyectode_juego_1_1scripts_1_1_maquinas__de__estados_1_1_movimiento_1_1_estados_1_1_falling_movement_state.html" target="_top" xlink:title="Estado de movimiento para la caída del jugador.">
<polygon fill="white" stroke="#666666" points="535.5,-230 326.75,-230 326.75,-186 535.5,-186 535.5,-230"/>
<text xml:space="preserve" text-anchor="start" x="334.75" y="-216.5" font-family="Helvetica,sans-Serif" font-size="10.00">NuevoProyectodeJuego.scripts.</text>
<text xml:space="preserve" text-anchor="start" x="334.75" y="-204.5" font-family="Helvetica,sans-Serif" font-size="10.00">Maquinas_de_estados.Movimiento.Estados.</text>
<text xml:space="preserve" text-anchor="middle" x="431.12" y="-192.5" font-family="Helvetica,sans-Serif" font-size="10.00">FallingMovementState</text>
</a>
</g>
</g>
<!-- Node2&#45;&gt;Node4 -->
<g id="edge6_Node000002_Node000004" class="edge">
<title>Node2&#45;&gt;Node4</title>
<g id="a_edge6_Node000002_Node000004"><a xlink:title=" ">
<path fill="none" stroke="#63b8ff" d="M266.65,-165.1C274.8,-167.06 282.94,-169.05 290.75,-171 309.09,-175.58 328.73,-180.68 347.32,-185.59"/>
<polygon fill="#63b8ff" stroke="#63b8ff" points="267.57,-161.72 257.03,-162.8 265.95,-168.53 267.57,-161.72"/>
</a>
</g>
</g>
<!-- Node5 -->
<g id="Node000005" class="node">
<title>Node5</title>
<g id="a_Node000005"><a xlink:href="class_nuevo_proyectode_juego_1_1scripts_1_1_maquinas__de__estados_1_1_movimiento_1_1_estados_1_1_idle_movement_state.html" target="_top" xlink:title="Estado de movimiento para el estado Idle del jugador.">
<polygon fill="white" stroke="#666666" points="535.5,-168 326.75,-168 326.75,-124 535.5,-124 535.5,-168"/>
<text xml:space="preserve" text-anchor="start" x="334.75" y="-154.5" font-family="Helvetica,sans-Serif" font-size="10.00">NuevoProyectodeJuego.scripts.</text>
<text xml:space="preserve" text-anchor="start" x="334.75" y="-142.5" font-family="Helvetica,sans-Serif" font-size="10.00">Maquinas_de_estados.Movimiento.Estados.</text>
<text xml:space="preserve" text-anchor="middle" x="431.12" y="-130.5" font-family="Helvetica,sans-Serif" font-size="10.00">IdleMovementState</text>
</a>
</g>
</g>
<!-- Node2&#45;&gt;Node5 -->
<g id="edge7_Node000002_Node000005" class="edge">
<title>Node2&#45;&gt;Node5</title>
<g id="a_edge7_Node000002_Node000005"><a xlink:title=" ">
<path fill="none" stroke="#63b8ff" d="M272.55,-146C290.07,-146 308.61,-146 326.57,-146"/>
<polygon fill="#63b8ff" stroke="#63b8ff" points="272.71,-142.5 262.71,-146 272.71,-149.5 272.71,-142.5"/>
</a>
</g>
</g>
<!-- Node6 -->
<g id="Node000006" class="node">
<title>Node6</title>
<g id="a_Node000006"><a xlink:href="class_nuevo_proyectode_juego_1_1scripts_1_1_maquinas__de__estados_1_1_movimiento_1_1_estados_1_1_jumping_movement_state.html" target="_top" xlink:title="Estado de movimiento para el salto del jugador.">
<polygon fill="white" stroke="#666666" points="535.5,-106 326.75,-106 326.75,-62 535.5,-62 535.5,-106"/>
<text xml:space="preserve" text-anchor="start" x="334.75" y="-92.5" font-family="Helvetica,sans-Serif" font-size="10.00">NuevoProyectodeJuego.scripts.</text>
<text xml:space="preserve" text-anchor="start" x="334.75" y="-80.5" font-family="Helvetica,sans-Serif" font-size="10.00">Maquinas_de_estados.Movimiento.Estados.</text>
<text xml:space="preserve" text-anchor="middle" x="431.12" y="-68.5" font-family="Helvetica,sans-Serif" font-size="10.00">JumpingMovementState</text>
</a>
</g>
</g>
<!-- Node2&#45;&gt;Node6 -->
<g id="edge8_Node000002_Node000006" class="edge">
<title>Node2&#45;&gt;Node6</title>
<g id="a_edge8_Node000002_Node000006"><a xlink:title=" ">
<path fill="none" stroke="#63b8ff" d="M260.4,-126.75C285.89,-120.33 314.5,-113.13 340.88,-106.48"/>
<polygon fill="#63b8ff" stroke="#63b8ff" points="259.62,-123.34 250.78,-129.18 261.33,-130.13 259.62,-123.34"/>
</a>
</g>
</g>
<!-- Node7 -->
<g id="Node000007" class="node">
<title>Node7</title>
<g id="a_Node000007"><a xlink:href="class_nuevo_proyectode_juego_1_1scripts_1_1_maquinas__de__estados_1_1_movimiento_1_1_estados_1_1_running_movement_state.html" target="_top" xlink:title="Estado de movimiento para la carrera del jugador.">
<polygon fill="white" stroke="#666666" points="535.5,-44 326.75,-44 326.75,0 535.5,0 535.5,-44"/>
<text xml:space="preserve" text-anchor="start" x="334.75" y="-30.5" font-family="Helvetica,sans-Serif" font-size="10.00">NuevoProyectodeJuego.scripts.</text>
<text xml:space="preserve" text-anchor="start" x="334.75" y="-18.5" font-family="Helvetica,sans-Serif" font-size="10.00">Maquinas_de_estados.Movimiento.Estados.</text>
<text xml:space="preserve" text-anchor="middle" x="431.12" y="-6.5" font-family="Helvetica,sans-Serif" font-size="10.00">RunningMovementState</text>
</a>
</g>
</g>
<!-- Node2&#45;&gt;Node7 -->
<g id="edge9_Node000002_Node000007" class="edge">
<title>Node2&#45;&gt;Node7</title>
<g id="a_edge9_Node000002_Node000007"><a xlink:title=" ">
<path fill="none" stroke="#63b8ff" d="M213.84,-122.91C241.74,-102.22 285.23,-72.26 326.75,-53 333.38,-49.92 340.39,-47.07 347.51,-44.43"/>
<polygon fill="#63b8ff" stroke="#63b8ff" points="211.76,-120.09 205.86,-128.89 215.96,-125.69 211.76,-120.09"/>
</a>
</g>
</g>
</g>
</svg>
